<svg xmlns="http://www.w3.org/2000/svg" xmlns:xlink="http://www.w3.org/1999/xlink" width="1200" height="32" viewBox="0 0 1200 32">
    <defs>
        <path id="${prefix}-4310a" d="M0 0h1200v32H0z"/>
    <mask id="${prefix}-4310b" fill="#fff">
            <use xlink:href="#${prefix}-4310a"/>
        </mask></defs>
    <g fill="none" fill-rule="evenodd">
        
        <use fill="#FFA07B" transform="matrix(1 0 0 -1 0 32)" xlink:href="#${prefix}-4310a"/>
        <text fill="#FFF" font-family="Rubik-Bold, Rubik" font-size="14" font-weight="bold" mask="url(#${prefix}-4310b)">
            <tspan x="458" y="21">&#x421;&#x43A;&#x438;&#x434;&#x43A;&#x438; &#x434;&#x43E; -90% &#x414;&#x43B;&#x44F; &#x432;&#x441;&#x435;&#x445; &#x432;&#x43B;&#x44E;&#x431;&#x43B;&#x451;&#x43D;&#x43D;&#x44B;&#x445;</tspan>
        </text>
        <g mask="url(#${prefix}-4310b)" opacity=".4">
            <path fill="#FFF" d="M797.928 14.984c3.203.623 5.138 3.495 4.476 6.902-.797 4.1-5.11 7.446-11.35 9.83-.24.082-.564.159-.771.119-.208-.04-.478-.233-.662-.399-4.901-4.548-7.647-9.266-6.85-13.366.662-3.407 3.532-5.346 6.735-4.723 1.829.355 3.165 1.504 3.794 2.964 1.152-1.124 2.8-1.683 4.628-1.327zM772.726-1.221c2.608-1.161 5.437-.073 6.672 2.701 1.486 3.339.074 7.902-3.202 12.74-.131.182-.324.399-.493.474-.169.075-.46.073-.674.047-5.796-.8-10.132-2.804-11.618-6.143-1.235-2.774-.151-5.604 2.457-6.765 1.489-.663 3.023-.51 4.207.22.262-1.384 1.162-2.61 2.651-3.274zm46.143 8.133c2.111.94 2.989 3.231 1.989 5.477-1.203 2.703-4.713 4.325-9.399 4.975-.18.019-.415.02-.552-.04-.137-.061-.293-.237-.393-.38-2.658-3.92-3.801-7.615-2.598-10.317 1-2.246 3.29-3.127 5.4-2.187 1.206.537 1.946 1.543 2.147 2.65.974-.592 2.2-.715 3.406-.178z"/>
        </g>
        <g mask="url(#${prefix}-4310b)" opacity=".4">
            <path fill="#FFF" d="M403.072 14.984c-3.203.623-5.138 3.495-4.476 6.902.797 4.1 5.11 7.446 11.35 9.83.24.082.564.159.771.119.208-.04.478-.233.662-.399 4.901-4.548 7.647-9.266 6.85-13.366-.662-3.407-3.532-5.346-6.735-4.723-1.829.355-3.165 1.504-3.794 2.964-1.152-1.124-2.8-1.683-4.628-1.327zm25.202-16.205c-2.608-1.161-5.437-.073-6.672 2.701-1.486 3.339-.074 7.902 3.202 12.74.131.182.324.399.493.474.169.075.46.073.674.047 5.796-.8 10.132-2.804 11.618-6.143 1.235-2.774.151-5.604-2.457-6.765-1.489-.663-3.023-.51-4.207.22-.262-1.384-1.162-2.61-2.651-3.274zm-46.143 8.133c-2.111.94-2.989 3.231-1.989 5.477 1.203 2.703 4.713 4.325 9.399 4.975.18.019.415.02.552-.04.137-.061.293-.237.393-.38 2.658-3.92 3.801-7.615 2.598-10.317-1-2.246-3.29-3.127-5.4-2.187-1.206.537-1.946 1.543-2.147 2.65-.974-.592-2.2-.715-3.406-.178z"/>
        </g>
    </g>
</svg>
