<svg xmlns="http://www.w3.org/2000/svg" width="20" height="20" viewBox="0 0 20 20">
    <path fill="#7B8E98" fill-rule="evenodd" d="M10.655 18.15l6.164-3.409c.721-.405 1.098-.802 1.098-1.895V6.793c0-.795-.298-1.284-.957-1.658l-5.552-3.073c-.95-.527-1.867-.527-2.816 0L3.048 5.135c-.667.374-.965.863-.965 1.658v6.053c0 1.093.385 1.49 1.098 1.895l6.172 3.409c.44.244.855.244 1.302 0zM13.69 7.336L7.612 3.988l1.506-.833c.604-.336 1.16-.344 1.772 0l5.168 2.874-2.368 1.307zm-3.686 2.033L3.95 6.029l2.423-1.353 6.054 3.355-2.423 1.338zm-.62 7.413l-5.497-3.05c-.455-.252-.612-.504-.612-.924v-5.77l6.11 3.4v6.344zm1.232 0v-6.344l6.109-3.4v5.77c0 .42-.157.672-.604.924l-5.505 3.05z"/>
</svg>
