<svg xmlns="http://www.w3.org/2000/svg" width="20" height="20" viewBox="0 0 20 20">
    <path fill="#7B8E98" fill-rule="evenodd" d="M15.716 17.5c1.748 0 2.617-.908 2.617-2.706V5.206c0-1.798-.87-2.706-2.617-2.706H4.293c-1.748 0-2.626.9-2.626 2.706v9.588c0 1.807.878 2.706 2.626 2.706h11.423zm.109-1.405H4.167c-.744 0-1.154-.41-1.154-1.223V6.64c0-.803.41-1.222 1.154-1.222h11.658c.744 0 1.162.42 1.162 1.222v8.232c0 .812-.418 1.223-1.162 1.223zM8.859 8.552c.292 0 .393-.087.393-.393v-.515c0-.305-.1-.401-.393-.401h-.494c-.293 0-.393.096-.393.401v.515c0 .306.1.393.393.393h.494zm2.776 0c.293 0 .393-.087.393-.393v-.515c0-.305-.1-.401-.393-.401h-.485c-.301 0-.393.096-.393.401v.515c0 .306.092.393.393.393h.485zm2.785 0c.292 0 .384-.087.384-.393v-.515c0-.305-.092-.401-.384-.401h-.494c-.292 0-.393.096-.393.401v.515c0 .306.1.393.393.393h.494zm-8.338 2.855c.293 0 .385-.088.385-.393v-.515c0-.306-.092-.393-.385-.393H5.59c-.293 0-.393.087-.393.393v.515c0 .305.1.393.393.393h.493zm2.777 0c.292 0 .393-.088.393-.393v-.515c0-.306-.1-.393-.393-.393h-.494c-.293 0-.393.087-.393.393v.515c0 .305.1.393.393.393h.494zm2.776 0c.293 0 .393-.088.393-.393v-.515c0-.306-.1-.393-.393-.393h-.485c-.301 0-.393.087-.393.393v.515c0 .305.092.393.393.393h.485zm2.785 0c.292 0 .384-.088.384-.393v-.515c0-.306-.092-.393-.384-.393h-.494c-.292 0-.393.087-.393.393v.515c0 .305.1.393.393.393h.494zM6.082 14.27c.293 0 .385-.096.385-.402v-.515c0-.305-.092-.392-.385-.392H5.59c-.293 0-.393.087-.393.392v.515c0 .306.1.402.393.402h.493zm2.777 0c.292 0 .393-.096.393-.402v-.515c0-.305-.1-.392-.393-.392h-.494c-.293 0-.393.087-.393.392v.515c0 .306.1.402.393.402h.494zm2.776 0c.293 0 .393-.096.393-.402v-.515c0-.305-.1-.392-.393-.392h-.485c-.301 0-.393.087-.393.392v.515c0 .306.092.402.393.402h.485z"/>
</svg>
