<svg xmlns="http://www.w3.org/2000/svg" width="16" height="16" viewBox="0 0 16 16">
  <path fill="#01A54E" fill-rule="evenodd" d="M7.07114228,12 C7.39579158,12 7.6753507,11.8506224 7.87374749,11.5767635 L12.2745491,5.26141079 C12.4008016,5.08713693 12.5,4.8879668 12.5,4.69709544 C12.5,4.27385892 12.1032064,4 11.6703407,4 C11.3907816,4 11.1472946,4.14107884 10.9579158,4.42323651 L7.03507014,10.1825726 L5.00601202,7.82572614 C4.79859719,7.57676349 4.57314629,7.47717842 4.30260521,7.47717842 C3.86072144,7.47717842 3.5,7.80082988 3.5,8.22406639 C3.5,8.42323651 3.58116232,8.61410788 3.73446894,8.78838174 L6.22344689,11.5850622 C6.4759519,11.8672199 6.73747495,12 7.07114228,12 Z"/>
</svg>
