<svg xmlns="http://www.w3.org/2000/svg" width="24" height="24" viewBox="0 0 24 24">
    <path fill="#7B8E98" fill-rule="evenodd" d="M14.883 9.106c.836 0 1.556-.539 1.858-1.284h2.547c.387 0 .712-.349.712-.769 0-.42-.325-.76-.712-.76H16.74A2.002 2.002 0 0014.883 5c-.843 0-1.563.54-1.857 1.292h-8.29c-.41 0-.736.341-.736.761s.325.77.735.77h8.29c.303.744 1.022 1.283 1.858 1.283zm0-1.078a.958.958 0 01-.952-.975c0-.555.418-.983.952-.983.542 0 .953.428.953.983 0 .54-.41.975-.953.975zM9.21 14.053c.836 0 1.556-.53 1.858-1.292h8.198c.41 0 .735-.34.735-.761a.746.746 0 00-.735-.761h-8.198c-.302-.753-1.022-1.284-1.858-1.284-.843 0-1.563.53-1.865 1.284H4.712c-.387 0-.712.34-.712.761 0 .412.325.761.712.761h2.632c.302.761 1.022 1.292 1.865 1.292zm0-1.07A.967.967 0 018.25 12c0-.555.426-.975.96-.975.535 0 .953.42.953.975 0 .547-.418.983-.953.983zM14.883 19c.844 0 1.564-.54 1.858-1.292h2.547c.387 0 .712-.341.712-.761 0-.428-.325-.761-.712-.761H16.74c-.294-.753-1.014-1.292-1.858-1.292-.836 0-1.563.539-1.857 1.292h-8.29c-.41 0-.736.34-.736.76 0 .413.325.762.735.762h8.29C13.32 18.46 14.04 19 14.884 19zm0-1.078a.958.958 0 01-.952-.975c0-.555.418-.975.952-.975.542 0 .953.42.953.975 0 .539-.41.975-.953.975z"/>
</svg>
