<svg xmlns="http://www.w3.org/2000/svg" width="24" height="24" viewBox="0 0 24 24">
    <path fill="#7B8E98" fill-rule="evenodd" d="M12 21c.211 0 .514-.137.735-.265C18.405 17.205 22 13.098 22 8.922 22 5.45 19.553 3 16.29 3c-1.863 0-3.374.863-4.29 2.186C11.104 3.873 9.573 3 7.71 3 4.447 3 2 5.451 2 8.922c0 4.176 3.595 8.284 9.275 11.813.211.128.514.265.725.265zm0-1.657c-.04 0-.11-.049-.201-.118C7.579 16.5 3.62 12.57 3.62 8.922c0-2.608 1.732-4.344 4.069-4.344 1.893 0 2.98 1.147 3.625 2.128.272.392.443.5.685.5.242 0 .393-.118.685-.5.695-.96 1.742-2.128 3.625-2.128 2.337 0 4.069 1.736 4.069 4.344 0 3.647-3.958 7.578-8.168 10.303-.1.07-.17.118-.211.118z"/>
</svg>
