<svg xmlns="http://www.w3.org/2000/svg" width="70" height="70" viewBox="0 0 70 70">
    <path fill="#CFD8DC" fill-rule="evenodd" d="M35 61.25c.617 0 1.498-.4 2.144-.772C53.681 50.184 64.167 38.203 64.167 26.02c0-10.122-7.138-17.271-16.654-17.271-5.434 0-9.84 2.516-12.513 6.377-2.614-3.832-7.079-6.377-12.513-6.377-9.516 0-16.654 7.149-16.654 17.271 0 12.182 10.486 24.163 27.052 34.457.617.372 1.498.772 2.115.772zm0-4.833c-.117 0-.323-.142-.587-.343-12.307-7.949-23.85-19.416-23.85-30.053 0-7.606 5.051-12.667 11.866-12.667 5.522 0 8.694 3.345 10.574 6.205.793 1.144 1.292 1.458 1.997 1.458.705 0 1.146-.343 1.997-1.458 2.027-2.802 5.082-6.205 10.574-6.205 6.815 0 11.867 5.061 11.867 12.667 0 10.637-11.544 22.104-23.821 30.053-.294.2-.5.343-.617.343z"/>
</svg>
