<svg xmlns="http://www.w3.org/2000/svg" width="24" height="24" viewBox="0 0 24 24">
    <path fill="#FFF" fill-rule="evenodd" d="M12.002 0c3.257.002 3.669.016 4.946.074 1.277.058 2.149.261 2.913.56.8.301 1.525.772 2.125 1.382A5.89 5.89 0 0123.37 4.14c.297.764.5 1.633.558 2.913.052 1.151.069 1.598.072 4.051v1.792c-.003 2.454-.02 2.902-.072 4.051-.058 1.277-.261 2.15-.558 2.913a6.137 6.137 0 01-3.51 3.51c-.763.296-1.632.499-2.912.557-1.28.058-1.689.072-4.948.072-3.26 0-3.67-.013-4.948-.072-1.277-.059-2.15-.261-2.913-.558a5.891 5.891 0 01-2.125-1.384A5.883 5.883 0 01.63 19.861c-.297-.764-.499-1.633-.558-2.913-.054-1.194-.07-1.63-.072-4.332v-1.23c.002-2.703.018-3.14.072-4.332.058-1.277.261-2.15.56-2.913.301-.8.773-1.526 1.382-2.125A5.884 5.884 0 014.139.632C4.903.335 5.774.131 7.054.072c1.11-.05 1.564-.068 3.787-.071L12.001 0zm0 2.162c-3.204 0-3.584.012-4.85.07-1.17.053-1.805.249-2.228.413a3.716 3.716 0 00-1.381.898c-.399.387-.706.86-.898 1.381-.164.423-.36 1.058-.413 2.228-.054 1.181-.068 1.59-.07 4.245v1.208c.002 2.655.016 3.064.07 4.245.053 1.17.249 1.805.413 2.228.192.522.5.994.898 1.381.387.399.86.706 1.381.898.423.164 1.059.36 2.229.413 1.096.05 1.528.066 3.709.07h2.28c2.181-.004 2.613-.02 3.71-.07 1.169-.053 1.804-.249 2.227-.413a3.978 3.978 0 002.278-2.277c.164-.423.36-1.059.413-2.228.052-1.14.067-1.56.07-3.969v-1.76c-.003-2.409-.018-2.83-.07-3.969-.054-1.17-.249-1.805-.413-2.228a3.715 3.715 0 00-.898-1.381 3.716 3.716 0 00-1.381-.898c-.423-.165-1.059-.36-2.229-.413-1.265-.058-1.645-.07-4.849-.07zM12 5.839a6.162 6.162 0 11.002 12.324A6.162 6.162 0 0112 5.839zM12 8A4.001 4.001 0 1012 16a4.001 4.001 0 000-8.002zm6.406-3.843a1.44 1.44 0 110 2.88 1.44 1.44 0 010-2.88z"/>
</svg>
