<svg xmlns="http://www.w3.org/2000/svg" width="24" height="24" viewBox="0 0 24 24">
    <path fill="#87D4AB" fill-rule="evenodd" d="M19.428 20c1.63 0 2.572-.905 2.572-2.699v-9.61C22 5.904 21.049 5 19.156 5H4.572C2.942 5 2 5.897 2 7.69v9.611C2 19.103 2.951 20 4.844 20h14.584zm-7.41-6.52c-.362 0-.715-.166-1.096-.54L4.083 6.454c.2-.078.435-.122.707-.122h14.42c.28 0 .526.044.725.14l-6.82 6.468c-.39.374-.744.54-1.097.54zm-8.623 3.97c-.01-.044-.01-.097-.01-.149V7.603l5.21 4.91-5.2 4.936zm17.22-.027l-5.173-4.91 5.172-4.884v9.794zm-1.405 1.245H4.79c-.254 0-.48-.035-.661-.113l5.416-5.145.59.557c.633.6 1.24.853 1.883.853.634 0 1.25-.252 1.884-.853l.589-.557 5.408 5.136c-.2.087-.426.122-.689.122z"/>
</svg>
