<svg xmlns="http://www.w3.org/2000/svg" width="24" height="24" viewBox="0 0 24 24">
    <path fill-rule="evenodd" d="M16.106 11.988c1.89 0 3.435-1.699 3.435-3.788 0-2.057-1.537-3.7-3.435-3.7-1.89 0-3.443 1.667-3.435 3.716 0 2.081 1.537 3.772 3.435 3.772zm-9.098.183c1.655 0 2.988-1.49 2.988-3.333 0-1.794-1.333-3.245-2.988-3.245-1.64 0-2.996 1.475-2.988 3.253 0 1.842 1.34 3.325 2.988 3.325zm9.098-1.578c-1.082 0-2-1.037-2-2.385-.008-1.3.91-2.312 2-2.312 1.09 0 2 .996 2 2.304 0 1.34-.91 2.393-2 2.393zm-9.098.199c-.886 0-1.64-.861-1.64-1.946 0-1.037.746-1.882 1.64-1.882.91 0 1.647.83 1.647 1.874 0 1.093-.753 1.954-1.647 1.954zm1.78 8.708c-.431-.255-.721-.837-.666-1.364H2.624c-.15 0-.212-.071-.212-.207 0-1.826 2.102-3.565 4.588-3.565.878 0 1.757.224 2.431.606.267-.39.596-.725 1.028-1.012C9.463 13.336 8.224 13 7 13c-3.318 0-6 2.408-6 5.056 0 .957.565 1.443 1.694 1.443h6.094zm12.196 0c1.357 0 2.016-.439 2.016-1.38 0-2.193-2.698-5.111-6.902-5.111-4.204 0-6.894 2.918-6.894 5.111 0 .941.65 1.38 2.008 1.38h9.772zm.251-1.396H10.97c-.189 0-.26-.063-.26-.207 0-1.22 1.938-3.493 5.389-3.493 3.451 0 5.388 2.273 5.388 3.493 0 .144-.07.207-.25.207z"/>
</svg>
