<svg xmlns="http://www.w3.org/2000/svg" width="20" height="20" viewBox="0 0 20 20">
    <path fill="#7B8E98" fill-rule="evenodd" d="M14.89 18.333c1.49 0 2.47-.4 3.33-1.371.069-.069.137-.145.197-.214.511-.57.75-1.133.75-1.67 0-.613-.358-1.184-1.117-1.712l-2.48-1.721c-.766-.529-1.66-.588-2.376.119l-.657.656c-.195.196-.366.204-.553.085-.46-.29-1.39-1.099-2.02-1.73C9.3 10.12 8.661 9.387 8.32 8.85c-.111-.196-.103-.358.093-.554l.648-.656c.716-.716.656-1.62.128-2.377l-1.721-2.48c-.529-.758-1.1-1.108-1.713-1.116-.537-.009-1.1.238-1.67.75l-.213.187C2.9 3.474 2.5 4.454 2.5 5.927c0 2.437 1.5 5.402 4.252 8.155 2.735 2.735 5.709 4.251 8.137 4.251zm.008-1.312c-2.173.043-4.96-1.627-7.166-3.826C5.508 10.98 3.762 8.1 3.804 5.927c.017-.937.349-1.747 1.014-2.326.06-.051.102-.094.162-.136.255-.222.528-.341.775-.341s.469.094.63.35L8.04 5.952c.178.264.195.562-.069.826l-.75.75c-.587.588-.545 1.304-.119 1.875.486.656 1.33 1.61 1.986 2.258.647.656 1.678 1.576 2.343 2.07.57.426 1.286.469 1.874-.12l.75-.749c.264-.264.554-.247.827-.077l2.48 1.653c.255.17.349.384.349.64 0 .247-.12.52-.341.775l-.137.162c-.579.664-1.388.988-2.334 1.005z"/>
</svg>
