<svg xmlns="http://www.w3.org/2000/svg" width="24" height="24" viewBox="0 0 24 24">
    <path fill-rule="evenodd" d="M9.924 1c.419 0 .744.343.744.792 0 .175-.05.336-.146.472l-.072.087-.908.873.49-.086c.683-.12 1.335-.182 1.974-.182C17.552 2.956 22 7.41 22 12.966 22 18.534 17.552 23 12.006 23 6.458 23 2 18.532 2 12.966c0-.473.327-.803.801-.803.453 0 .744.32.744.803 0 4.71 3.767 8.485 8.46 8.485 4.692 0 8.45-3.774 8.45-8.485 0-4.699-3.757-8.461-8.45-8.461-.778 0-1.475.053-2.098.161l-.577.112.861.93c.151.152.224.34.224.554 0 .444-.32.768-.755.768-.194 0-.352-.051-.483-.153l-.083-.073L7.13 4.736c-.167-.167-.245-.358-.245-.586 0-.177.06-.356.17-.5l.08-.09 2.222-2.331C9.49 1.076 9.677 1 9.924 1zm3.54 7c.814 0 1.482.628 1.554 1.428l.006.143v.983c0 .167-.026.329-.074.48.567.196.986.714 1.043 1.338l.007.146v4.91c0 .82-.623 1.493-1.419 1.566L14.44 19H9.561c-.814 0-1.483-.628-1.555-1.428L8 17.429v-4.911c0-.688.44-1.273 1.05-1.486-.032-.1-.054-.204-.066-.313l-.008-.165V9.57c0-.82.623-1.492 1.419-1.565L10.537 8h2.926zm.975 4.125H9.561c-.189 0-.346.135-.382.314l-.008.079v4.91c0 .19.134.349.311.385l.079.008h4.878c.189 0 .346-.134.382-.313l.008-.08v-4.91c0-.217-.174-.393-.39-.393zM12 13c.19 0 .35.136.388.316l.008.08v1.192h1.208c.218 0 .396.178.396.396 0 .19-.136.351-.316.388l-.08.008h-1.208v1.224c0 .218-.178.396-.396.396-.19 0-.35-.136-.388-.316l-.008-.08V15.38h-1.208c-.218 0-.396-.178-.396-.396 0-.19.136-.35.316-.388l.08-.008h1.208v-1.192c0-.218.178-.396.396-.396zm1.463-3.821h-2.926c-.189 0-.346.134-.383.313l-.008.08v.982c0 .19.134.348.312.384l.079.008h2.926c.189 0 .346-.134.383-.313l.008-.08v-.982c0-.217-.175-.392-.39-.392z"/>
</svg>
