<svg xmlns="http://www.w3.org/2000/svg" width="70" height="70" viewBox="0 0 70 70">
    <path fill="#CFD8DC" fill-rule="evenodd" d="M55.582 58.333c1.611 0 2.751-1.227 2.751-2.798 0-.737-.247-1.424-.793-1.964L45.867 41.984c2.454-3.191 3.916-7.144 3.916-11.44 0-10.384-8.575-18.877-19.058-18.877S11.667 20.16 11.667 30.544c0 10.384 8.575 18.878 19.058 18.878 4.139 0 7.955-1.325 11.078-3.535L53.55 57.523c.545.54 1.264.81 2.032.81zM30.725 45.347c-8.179 0-14.944-6.702-14.944-14.803 0-8.1 6.765-14.802 14.944-14.802 8.178 0 14.944 6.701 14.944 14.802 0 8.101-6.766 14.803-14.944 14.803z"/>
</svg>
