<svg xmlns="http://www.w3.org/2000/svg" width="24" height="24" viewBox="0 0 24 24">
    <path fill="#CFD8DC" fill-rule="evenodd" d="M12 22c.173 0 .455-.066.726-.22C18.888 18.27 21 16.785 21 12.77V6.576c0-1.155-.487-1.518-1.408-1.914-1.278-.539-5.404-2.046-6.682-2.497A2.887 2.887 0 0012 2c-.303 0-.617.088-.899.165-1.278.374-5.415 1.97-6.693 2.497C3.498 5.047 3 5.422 3 6.576v6.194c0 4.015 2.123 5.49 8.274 9.01.282.154.553.22.726.22zm0-2.002c-.173 0-.347-.066-.671-.264-5.004-3.08-6.607-3.983-6.607-7.371V6.906c0-.374.065-.517.368-.638 1.646-.66 4.841-1.749 6.477-2.409.173-.066.314-.099.433-.099.12 0 .26.033.433.1 1.636.66 4.809 1.825 6.488 2.408.292.11.357.264.357.638v5.457c0 3.388-1.603 4.28-6.607 7.37-.314.199-.498.265-.671.265zm2.697-4.269c.758 0 1.115-.385 1.115-1.21v-3.157c0-.726-.27-1.1-.855-1.188v-.198c0-2.024-1.192-3.389-2.957-3.389S9.043 7.952 9.043 9.976v.209c-.574.088-.844.462-.844 1.177v3.157c0 .825.357 1.21 1.104 1.21h5.394zm-4.527-5.566v-.308c0-1.298.736-2.156 1.83-2.156s1.83.858 1.83 2.156v.297l-3.66.01z"/>
</svg>
