<svg xmlns="http://www.w3.org/2000/svg" width="24" height="24" viewBox="0 0 24 24">
    <path fill="#CFD8DC" fill-rule="evenodd" d="M12.428 2c2.885 0 5.248 2.31 5.361 5.173l.004.215v.647l.755.001c.695 0 1.275.496 1.402 1.15l.02.133.006.136V12.1c0 .736-.568 1.344-1.29 1.413l-.138.006h-1.54l-.106.16c-.35.496-.79.964-1.29 1.384l-.255.206-.18.133.003.047c.057.7.533 1.244 1.19 1.362l.135.018.138.006c3.534 0 5.357 1.202 5.357 4.378a.79.79 0 01-.793.788.79.79 0 01-.793-.788c0-2.225-1.033-2.802-3.77-2.802-.424 0-.836-.087-1.216-.251l-.076-.037-3.081 2.219a.797.797 0 01-.741.114l-.104-.044-.098-.06-2.944-2.121-.112.04a3.04 3.04 0 01-.45.105l-.231.026-.234.009c-2.738 0-3.771.577-3.771 2.802a.79.79 0 01-.793.788.79.79 0 01-.793-.788c0-3.176 1.823-4.378 5.357-4.378.722 0 1.333-.527 1.449-1.22l.003-.024-.174-.118a7.158 7.158 0 01-1.608-1.549l-.174-.249-.097-.156H5.452a1.429 1.429 0 01-1.402-1.15l-.02-.133-.006-.136V9.455c0-.736.568-1.344 1.29-1.413l.138-.006h.755v-.648c0-2.815 2.176-5.147 4.931-5.37l.219-.014.215-.004h.856zm1.363 14.46l-.066-.19-.01.006c-.684.321-1.327.505-1.788.505-.39 0-.887-.11-1.423-.31l-.263-.103-.069.183a3.08 3.08 0 01-.307.553l-.122.16 2.05 1.476 2.319-1.67-.011-.016a3.029 3.029 0 01-.31-.593zm-1.893-9.168l-.1.077A6.191 6.191 0 017.861 8.54l-.07-.006-.007 3.47c.206.655.679 1.29 1.34 1.85l.203.166c.904.706 1.997 1.184 2.6 1.184.617 0 1.85-.615 2.809-1.468l.19-.176.042-.043h-1.29l-.022.027a1.19 1.19 0 01-.722.36l-.14.008c-.657 0-1.19-.53-1.19-1.183s.533-1.183 1.19-1.183c.331 0 .64.136.862.368l.023.027h2.528V8.519l-.071.009a6.202 6.202 0 01-4.127-1.151l-.111-.085zm-5.99 2.32a.598.598 0 00-.598.598v1.133a.598.598 0 001.195 0V10.21a.598.598 0 00-.597-.598zm12.183 0a.597.597 0 00-.597.597v1.135a.597.597 0 001.194 0V10.21a.597.597 0 00-.597-.597zm-3.96-5.626l-.02.08a6.067 6.067 0 01-1.002 2.019l-.07.086.038.027a4.63 4.63 0 003.04.751l.063-.008-.002-.029a3.827 3.827 0 00-1.884-2.838l-.163-.088zm-1.703-.41h-.856c-1.866 0-3.427 1.374-3.727 3.181l-.03.204.024.002c2.13.148 4.081-1.192 4.708-3.193l.054-.19-.173-.004z"/>
</svg>
