<svg xmlns="http://www.w3.org/2000/svg" width="20" height="20" viewBox="0 0 20 20">
    <path fill-rule="evenodd" d="M9.617 1.824a.545.545 0 0 1 .766 0l1.429 1.415 1.944-.511a.545.545 0 0 1 .664.383l.53 1.94 1.939.53a.543.543 0 0 1 .383.663l-.51 1.944 1.414 1.429c.21.212.21.554 0 .766l-1.415 1.429.511 1.944a.545.545 0 0 1-.383.664l-1.94.53-.53 1.939a.545.545 0 0 1-.663.383l-1.944-.51-1.429 1.414a.543.543 0 0 1-.766 0L8.188 16.76l-1.944.511a.545.545 0 0 1-.664-.383l-.53-1.94-1.939-.53a.545.545 0 0 1-.383-.663l.51-1.944-1.414-1.429a.545.545 0 0 1 0-.766L3.24 8.188l-.511-1.944a.545.545 0 0 1 .383-.664l1.94-.53.53-1.939a.545.545 0 0 1 .663-.383l1.944.51zM10 2.98L8.734 4.232a.545.545 0 0 1-.522.14L6.49 3.919l-.47 1.719a.545.545 0 0 1-.381.382l-1.719.47.453 1.722a.545.545 0 0 1-.14.522L2.98 10l1.253 1.266a.545.545 0 0 1 .14.522l-.453 1.723 1.719.47c.186.05.331.195.382.381l.47 1.719 1.722-.453a.545.545 0 0 1 .522.14L10 17.02l1.266-1.253a.545.545 0 0 1 .522-.14l1.723.453.47-1.719a.545.545 0 0 1 .381-.382l1.719-.47-.453-1.722a.545.545 0 0 1 .14-.522L17.02 10l-1.253-1.266a.545.545 0 0 1-.14-.522l.453-1.723-1.719-.47a.545.545 0 0 1-.382-.381l-.47-1.719-1.722.453a.545.545 0 0 1-.522-.14L10 2.979zm2.18 7.384c1.002 0 1.816.815 1.816 1.817a1.819 1.819 0 0 1-1.816 1.816 1.819 1.819 0 0 1-1.817-1.816c0-1.002.815-1.817 1.817-1.817zm-.022-3.292a.545.545 0 1 1 .77.771L7.842 12.93a.543.543 0 0 1-.77 0 .545.545 0 0 1 0-.771zm.022 4.382a.727.727 0 1 0 .002 1.455.727.727 0 0 0-.002-1.455zm-4.36-5.45c1.002 0 1.817.815 1.817 1.817A1.819 1.819 0 0 1 7.82 9.637 1.819 1.819 0 0 1 6.004 7.82c0-1.002.814-1.816 1.816-1.816zm0 1.09a.727.727 0 1 0 .002 1.455.727.727 0 0 0-.002-1.455z"/>
</svg>
