<svg xmlns="http://www.w3.org/2000/svg" width="20" height="20" viewBox="0 0 20 20">
    <path fill="#7B8E98" fill-rule="evenodd" d="M10 18.333c4.559 0 8.333-3.774 8.333-8.333 0-4.55-3.782-8.333-8.341-8.333-4.55 0-8.325 3.782-8.325 8.333 0 4.559 3.782 8.333 8.333 8.333zm0-1.389c-3.856 0-6.936-3.088-6.936-6.944 0-3.848 3.072-6.944 6.928-6.944S16.936 6.152 16.944 10c.009 3.856-3.088 6.944-6.944 6.944zm-.008-6.062c.318 0 .572-.245.572-.572V4.804c0-.319-.254-.564-.572-.564-.319 0-.564.245-.564.564v4.943h-3.7c-.328 0-.573.245-.573.563 0 .327.245.572.572.572h4.265z"/>
</svg>
