<svg xmlns="http://www.w3.org/2000/svg" width="24" height="24" viewBox="0 0 24 24">
    <path fill="#CFD8DC" fill-rule="evenodd" d="M12.006 12.01c2.724 0 4.945-2.289 4.945-5.075A4.913 4.913 0 0012.006 2 4.96 4.96 0 007.06 6.957c.012 2.775 2.221 5.054 4.946 5.054zm0-1.63c-1.672 0-3.103-1.512-3.103-3.423 0-1.88 1.408-3.326 3.103-3.326 1.706 0 3.102 1.425 3.102 3.304 0 1.912-1.42 3.445-3.102 3.445zM19.196 22c1.9 0 2.804-.54 2.804-1.728 0-2.83-3.79-6.922-9.994-6.922C5.789 13.35 2 17.443 2 20.272 2 21.46 2.904 22 4.805 22h14.39zm.549-1.63H4.267c-.298 0-.424-.076-.424-.303 0-1.771 2.908-5.086 8.163-5.086 5.243 0 8.15 3.315 8.15 5.086 0 .227-.114.302-.411.302z"/>
</svg>
