<svg xmlns="http://www.w3.org/2000/svg" width="24" height="24" viewBox="0 0 24 24">
    <path fill-rule="evenodd" d="M16.027 2c.377 0 .687.286.733.654l.005.094v6.207l3.288.001c.346 0 .636.24.716.564l.017.09.006.094v7.116l.47.001c.345 0 .635.24.715.564l.017.09.006.094v3.683c0 .38-.281.696-.646.742l-.093.006h-2.416c-.377 0-.687-.286-.732-.654l-.006-.094v-.48h-4.16v.48c0 .349-.237.643-.557.725l-.09.017-.092.006h-2.416c-.377 0-.687-.286-.733-.654l-.006-.094v-.48h-4.16v.48c0 .349-.236.643-.556.725l-.09.017-.092.006H2.739c-.377 0-.688-.286-.733-.654L2 21.252v-3.683c0-.38.281-.696.646-.742l.093-.006h.468l.001-7.117c0-.35.236-.643.557-.725l.089-.017.093-.006h3.287V2.747c0-.349.237-.643.557-.725l.09-.017L7.973 2h8.054zm4.496 16.317H3.476v2.186h.94v-.479c0-.38.281-.696.646-.742l.093-.006h5.637c.377 0 .687.286.733.655l.006.093-.001.48h.94v-.48c0-.38.28-.696.645-.742l.093-.006h5.637c.377 0 .688.286.733.655l.006.093v.48h.939v-2.187zm-1.208-7.865h-6.577v6.368h6.577v-6.368zm-8.054 0H4.684v6.368h6.577v-6.368zm4.027-6.956H8.71v5.46h6.577v-5.46z"/>
</svg>
