<svg xmlns="http://www.w3.org/2000/svg" width="59" height="24" viewBox="0 0 59 24">
    <defs>
        <linearGradient id="prefix__a" x1="0%" x2="100%" y1="50%" y2="50%">
            <stop offset="0%" stop-color="#00A0E5"/>
            <stop offset="100%" stop-color="#0077C3"/>
        </linearGradient>
    </defs>
    <g fill="none" fill-rule="evenodd">
        <rect width="58.5" height="24" fill="#FFF" rx="4.5"/>
        <g fill-rule="nonzero">
            <path fill="#37A72E" d="M36.503 7.587v7.538H40.7v-4.467h4.757a4.654 4.654 0 004.345-3.071h-13.3z" transform="translate(3.75 3.75)"/>
            <path fill="url(#prefix__a)" d="M35.943 1.375c.244 3.081 3.166 5.514 6.735 5.514h7.3a4.647 4.647 0 00-4.536-5.514h-9.5z" transform="translate(3.75 3.75)"/>
            <path fill="#37A72E" d="M29.733 6.809a.252.252 0 01.472.115v8.201h4.198V1.375h-4.198c-.532.018-1.133.407-1.357.886l-3.341 7.147a.278.278 0 01-.038.08v.003a.28.28 0 01-.51-.16l-.001-7.956H20.76v13.75h4.198c.526-.029 1.114-.414 1.334-.886l3.429-7.405a.25.25 0 01.009-.018l.003-.007zM11.6 15.125H8.58l-2.455-8.08a.276.276 0 00-.549.05v8.03H1.378V1.375h4.677c.772 0 1.582.598 1.808 1.335l2.043 6.666c.101.332.266.331.368 0l2.043-6.666c.226-.738 1.035-1.335 1.808-1.335H18.8v13.75h-4.199V7.098a.277.277 0 00-.549-.049L11.6 15.125z" transform="translate(3.75 3.75)"/>
        </g>
    </g>
</svg>
