<svg xmlns="http://www.w3.org/2000/svg" width="141" height="40" viewBox="0 0 141 40">
    <path fill="#040404" fill-rule="evenodd" d="M7.676.057a2.52 2.52 0 011.235.05 4.444 4.444 0 011.72.709c.28.185.449.494.455.828v17.302c-.016 1.905.101 3.81-.245 5.673-.263 1.518-.85 3.032-1.94 4.15-.35.413-.771.762-1.244 1.028-.392.244-.846.37-1.308.362a.52.52 0 01-.174-.413 5.21 5.21 0 01.346-1.298c.4-1.448.606-2.943.616-4.445.038-7.025.053-14.057.088-21.082a3.516 3.516 0 00-.04-.543c-.27 0-.439.232-.636.4a9.778 9.778 0 00-2.044 2.876 12.825 12.825 0 00-1.124 4.378 8.305 8.305 0 00.197 2.933 5.59 5.59 0 00.971 2.064c.22.244.262.6.105.888-.257.264-.657.124-.952.029a5.835 5.835 0 01-2.54-1.905A5.924 5.924 0 010 10.476a11.19 11.19 0 01.787-3.27 13.13 13.13 0 012.594-4.2A14.978 14.978 0 015.787.952a6.895 6.895 0 011.89-.895zm38.095.28c.318-.28.8-.239 1.204-.188a8.854 8.854 0 012.108.588c.204.09.39.218.549.377a324.39 324.39 0 01-.213 4.718c1.585.074 3.173.158 4.762.254.276 0 .635.089.689.419a2.46 2.46 0 01-.238 1.441c-.134.229-.318.511-.635.489-1.537.025-3.073.076-4.613.098-.086 2.223-.143 4.42-.219 6.629-.041 2.016-.225 4.041 0 6.054.05.793.246 1.57.578 2.292.144.322.437.554.784.619.458.026.908-.133 1.248-.441a5.454 5.454 0 001.24-1.724c.36-.733.656-1.496.887-2.28a6.4 6.4 0 00.05-1.047c.01-1.854.333-3.694.953-5.441.476-1.27 1.152-2.505 2.222-3.362a4.25 4.25 0 014.28-.702 4.127 4.127 0 012.085 1.937c.06-.407-.035-.848.15-1.229.253-.413.8-.432 1.231-.394a4.444 4.444 0 011.676.499c.344.154.584.474.635.847-.098 3.372-.238 6.747-.133 10.121.034.733.133 1.462.295 2.178.133.517.298 1.076.73 1.425.424.278.981.242 1.365-.089.635-.482.972-1.203 1.286-1.904a1.16 1.16 0 00.156-.635 22.27 22.27 0 01.05-6.096 11.47 11.47 0 011.337-3.882 7.105 7.105 0 013.016-2.876 2.6 2.6 0 01.768-.254 4.806 4.806 0 013.463 1.324c.23.254.435.53.61.825.083-.378 0-.781.13-1.146.203-.429.753-.454 1.159-.397a5.92 5.92 0 012 .606c.378.223.378.705.359 1.093-.035 3.81-.09 7.6-.118 11.4a29.841 29.841 0 002.327-3.81 19.403 19.403 0 001.886-5.098 3.114 3.114 0 01-1.045-1.588 3.092 3.092 0 01.137-1.555c.21-.786.8-1.414 1.571-1.673a2.495 2.495 0 011.829.117c.408.247.678.67.73 1.143a4 4 0 01-.076 1.41c1.019-.162 2.035-.318 3.035-.578a3.997 3.997 0 012.108-.064c.484.167.846.575.952 1.076.15.52.138 1.075-.035 1.588a12.8 12.8 0 00-.47 2.105c-.317 1.863-.743 3.771-.431 5.666a9.79 9.79 0 00.619 2.48c.206.419.466.876.952 1.025a1.55 1.55 0 001.302-.403 4.003 4.003 0 001.162-2.048 17.114 17.114 0 01-.175-6.057c.21-1.516.68-2.984 1.39-4.34a5.806 5.806 0 012.438-2.46 4.127 4.127 0 013.81.07c.7.394 1.278.974 1.67 1.676.063-.41-.041-.863.178-1.238.317-.403.92-.381 1.387-.317.686.12 1.438.288 1.905.834.317.343.162.832.165 1.245-.057 2.222-.153 4.444-.143 6.648 0 1.692-.054 3.415.397 5.063.096.443.332.844.673 1.143.429.28.988.254 1.39-.064a4.673 4.673 0 001.213-1.587c.281-.513.51-1.053.682-1.613 0-3.727.029-7.454.035-11.18a.79.79 0 01.4-.82c.229-.14.499-.035.746 0 .658.124 1.353.143 1.96.454.255.09.432.324.45.594v5.527c-.005.212.002.424.022.635a84.771 84.771 0 011.762-4.997c.246-.612.531-1.208.854-1.784.25-.457.835-.533 1.305-.505 1 .076 2.06.508 2.593 1.407.184.33.279.704.273 1.082-.019 1.905.09 3.829.226 5.74.044.59.054 1.19.146 1.778a.25.25 0 00.111-.181c.218-1.412.536-2.806.952-4.172a40 40 0 011.572-4.476c.162-.362.317-.775.692-.968.533-.292 1.178-.203 1.74-.035a5.19 5.19 0 011.8.889c.397.308.647.768.688 1.27-.155 2.965-.298 5.946-.079 8.91.051.82.174 1.632.368 2.43.105.453.293.884.556 1.269a1.06 1.06 0 001.203.375c.363-.176.652-.472.82-.838.444-.826.57-1.762.821-2.654a.816.816 0 01.477-.648c.203-.13.415.029.58.15.21.196.147.504.15.758-.057 1.432-.283 2.93-1.124 4.127a3.35 3.35 0 01-3.08 1.492 3.492 3.492 0 01-2.726-1.616c-.756-1.143-1.058-2.511-1.27-3.848-.353-2.666-.264-5.358-.194-8.034a.65.65 0 00-.235.295 22.371 22.371 0 00-1.647 4.708 30.667 30.667 0 00-.93 6.431.575.575 0 01-.461.553 2.35 2.35 0 01-1.886 0 2.81 2.81 0 01-1.304-1.416 6.771 6.771 0 01-.496-1.95c-.355-2.752-.476-5.53-.612-8.298.019-.2-.21-.073-.318-.054-1.352 2.35-2.035 5.016-2.384 7.686a38.54 38.54 0 00-.317 4.686c0 .286-.155.55-.404.692a2.648 2.648 0 01-1.533.21c-.613-.06-1.27-.115-1.784-.477a.829.829 0 01-.375-.654c-.038-.508-.047-1.019-.092-1.53-.254.428-.537.837-.847 1.225a3.962 3.962 0 01-2.042 1.36 3.419 3.419 0 01-3.238-.994 5.08 5.08 0 01-1.174-2.572 6.378 6.378 0 01-2.75 3.038 5.175 5.175 0 01-1.961.578 3.863 3.863 0 01-2.223-.346 4.927 4.927 0 01-2.19-2.425c-.527 1.187-1.438 2.327-2.74 2.676-1.301.349-2.673-.172-3.597-1.09a7.235 7.235 0 01-1.974-4.38 11.857 11.857 0 010-2.35c.084-1.756.34-3.5.765-5.206a2.05 2.05 0 000-.279c-.937-.048-1.876 0-2.816 0a24.537 24.537 0 01-1.927 4.578 39.702 39.702 0 01-4.803 7.006c.019 2.083.086 4.168-.016 6.248-.102 1.65-.35 3.324-1.038 4.841a5.838 5.838 0 01-2.46 2.75 6.4 6.4 0 01-2.715.761c-1.174-.082-2.393-.374-3.31-1.152a3.698 3.698 0 01-1.27-2.108 4.41 4.41 0 01.07-2.153c.415-1.304 1.269-2.422 2.148-3.431.88-1.01 1.96-1.905 2.953-2.857.793-.743 1.587-1.483 2.39-2.223 0-.577-.076-1.155-.092-1.733a9.063 9.063 0 01-1.159 1.394 5.397 5.397 0 01-4.4 1.482c-1.101-.193-2.006-.952-2.666-1.825a7.619 7.619 0 01-.67-1.01c-.584 1.159-1.429 2.343-2.724 2.746a3.559 3.559 0 01-3.6-1.184 4.829 4.829 0 01-1.035-2.4 6.59 6.59 0 01-2.486 2.899 5.267 5.267 0 01-2.365.765 3.79 3.79 0 01-2.6-.635c-1.352-.953-2.019-2.559-2.416-4.105a9.93 9.93 0 01-.904 1.956c-.34.576-.75 1.11-1.22 1.587a3.743 3.743 0 01-2.076 1.105 3.365 3.365 0 01-2.587-.76 5.2 5.2 0 01-1.308-1.806 11.717 11.717 0 01-.91-3.974c-.715 1.587-1.563 3.136-2.81 4.359a7.432 7.432 0 01-3.511 2.047 9.524 9.524 0 01-3.232.146 6.857 6.857 0 01-2.69-.746 1.829 1.829 0 01-.92-1.022c-.076-.514.216-.978.499-1.378.247-.4.604-.719 1.028-.92.416-.137.775.2 1.099.41.485.47 1.083.809 1.736.983a1.692 1.692 0 001.806-.616c.32-.55.487-1.176.486-1.812 0-1.181-.765-2.188-1.562-2.99-.746-.715-1.53-1.391-2.301-2.08-1.09 1.87-2.267 3.689-3.378 5.552a12.578 12.578 0 01-2.483 3.248 5.044 5.044 0 01-2.61 1.352 1.905 1.905 0 01-1.748-.749 4.987 4.987 0 01-.892-2.371 30.352 30.352 0 01-.102-4.527c.025-1.905.124-3.832.187-5.75.035-.41.042-.82.02-1.231-.13.028-.28.031-.363.152-1.834 2.064-2.984 4.635-3.87 7.225A41.596 41.596 0 0018 26.537a1.32 1.32 0 01-1.06.244c-.448-.064-.908 0-1.35-.095a1.35 1.35 0 01-.831-.816 5.806 5.806 0 01-.356-2.378c.038-4.535.071-9.072.099-13.61a.54.54 0 01.285-.57c.477-.1.972-.073 1.435.078.524.137 1.095.27 1.49.673.202.188.117.486.132.73 0 2.518-.047 5.036-.034 7.553.825-2.222 1.638-4.495 2.927-6.511.27-.427.576-.83.914-1.206.61-.712 1.45-1.337 2.425-1.36.734-.028 1.4.318 2.041.636a2.762 2.762 0 011.413 1.374c.11.379.14.775.089 1.165-.067 2.166-.13 4.33-.203 6.493 0 .885-.086 1.768-.035 2.65.012.424.086.843.219 1.245.092.219.222.476.486.517a.883.883 0 00.635-.298 8.089 8.089 0 001.044-1.232 46.403 46.403 0 002.46-3.952c.458-.832.93-1.651 1.353-2.502-.15-.248-.375-.444-.508-.708a3.457 3.457 0 01-.372-2.74 4.225 4.225 0 011.534-2.244 4.603 4.603 0 011.749-.73 2.362 2.362 0 011.78.254c.355.238.566.637.563 1.063a4.324 4.324 0 01-.635 2.223 10.908 10.908 0 01-1.302 1.857c1.553 1.13 3.175 2.222 4.502 3.597a4.8 4.8 0 011.403 2.685c.057.53.033 1.065-.07 1.588 1.46-1.27 2.59-3.016 2.886-4.953.038-2.955.029-5.914.06-8.873-1.352-.025-2.708-.028-4.057-.063a.908.908 0 01-.336-.788c-.02-.693.212-1.37.654-1.904.073-.108.21-.073.317-.083l3.616.05c.057-1.37.089-2.739.143-4.11 0-.394 0-.832.266-1.153v.004zm14.756 11.428c-.794.159-1.381.797-1.752 1.48a9.15 9.15 0 00-.877 3 21.695 21.695 0 00-.168 4.06 7.902 7.902 0 00.695 3.057 2.4 2.4 0 001.258 1.178c.372.147.79.125 1.146-.06a3.883 3.883 0 001.565-1.753 12.06 12.06 0 001.047-4.159c.118-1.482.159-2.997-.2-4.444a3.867 3.867 0 00-1.016-1.883 1.876 1.876 0 00-1.682-.48l-.016.004zm16.841.05c-.952.261-1.612 1.09-2.038 1.934a11.978 11.978 0 00-.984 4.22c-.07 1.618-.086 3.282.413 4.844.254.74.682 1.495 1.419 1.828.47.215 1.016.18 1.454-.095a3.4 3.4 0 00.952-.908 7.717 7.717 0 001.181-2.72c.33-1.436.484-2.906.457-4.378a9.952 9.952 0 00-.419-2.981 3.041 3.041 0 00-1.041-1.537 1.606 1.606 0 00-1.378-.206h-.016zm29.207.125c-.832.133-1.464.777-1.842 1.495-.673 1.27-.876 2.733-1.003 4.155-.105 1.588-.149 3.226.226 4.791a3.762 3.762 0 001.152 2.063c.406.355.967.475 1.482.318.66-.222 1.124-.794 1.496-1.359.85-1.406 1.165-3.06 1.32-4.676a13.568 13.568 0 00-.2-4.425 3.686 3.686 0 00-1.054-1.905 1.841 1.841 0 00-1.549-.464l-.028.007zm-27.21 17.717c-1.467 1.448-2.822 3.07-3.638 4.981a3.28 3.28 0 00-.238 2.181 1.657 1.657 0 001.159 1.194A2.775 2.775 0 0078.8 37.8c.56-.404.974-.979 1.181-1.638.435-1.232.52-2.54.58-3.841.061-1.302.055-2.54.064-3.81-.444.352-.868.73-1.27 1.13l.01.016z"/>
</svg>
