<svg xmlns="http://www.w3.org/2000/svg" width="32" height="32" viewBox="0 0 32 32">
    <path fill="#01A54E" fill-rule="evenodd" d="M9.917 0l12.19.011a1.909 1.909 0 0 1 1.912 1.915L24 7.999h6.084c1.058 0 1.916.86 1.916 1.914v12.172A1.914 1.914 0 0 1 30.084 24H24v6.084C24 31.142 23.14 32 22.086 32H9.914A1.914 1.914 0 0 1 8 30.084V24H1.916A1.917 1.917 0 0 1 0 22.085V9.913c0-1.057.856-1.914 1.916-1.914H8V1.915C8 .856 8.862-.001 9.917 0zm.267.896c-.713 0-1.288.575-1.288 1.284v6.715H2.181c-.71 0-1.285.576-1.285 1.286v11.637c0 .71.575 1.286 1.285 1.286h6.715v6.715c0 .71.576 1.285 1.286 1.285h11.636c.711 0 1.286-.576 1.286-1.285v-6.715h6.715c.71 0 1.285-.576 1.285-1.286V10.18c0-.712-.576-1.286-1.286-1.286h-6.717l.02-6.704A1.282 1.282 0 0 0 21.839.907zm.242.897l11.167.01c.351 0 .633.287.632.64l-.023 7.348h7.364c.357 0 .642.283.642.633v11.15c0 .35-.287.633-.641.633h-7.359v7.36a.636.636 0 0 1-.633.64h-11.15a.637.637 0 0 1-.633-.64v-7.36H2.433a.636.636 0 0 1-.641-.632V10.424c0-.35.287-.633.641-.633h7.359V2.433c0-.356.284-.64.634-.64zm8.946 7.436c-.717-.205-1.659-.4-3.667-.154-2.275.278-2.577.84-3.27 1.26-.691.419-.736.65-.798.968a.644.644 0 0 1-.33.16s-.124.046-.249.046c-.124 0-.249-.047-.249-.047s.074.093.166.123c.092.03.27.022.27.022s-.029.054-.072.071c-.044.018-.25.06-.25.06s.14.05.25.033a.282.282 0 0 0 .17-.099l.356-.196s1.106.562 2.085.196c.98-.365.326-.491 1.516-1.051 1.19-.56 2.591-.516 3.69-.163 1.1.354 2.139 1.149 2.139 2.25 0 1.103-.481 1.981-2.397 2.53-.908.26-2.424.417-3.637.738a9.16 9.16 0 0 0-.945.305c-.59.228-1.492.84-1.96 1.499-.298.419-.54.936-.54 1.51 0 .79.253 1.892 1.171 2.63.918.737 2.075 1.12 3.549 1.12 3.163 0 4.759-1.965 4.759-3.57 0-1.604-1.313-2.519-1.85-2.647-.757.181-1.866.344-1.866.344s.463.17.586.222c.24.103.51.233.715.376.483.335.817.788.853 1.634.036.847-.702 1.447-.702 1.447s-.96.867-2.329.867c-1.37 0-3.322-.568-3.322-2.353 0-1.785 3.101-2.332 3.481-2.409.38-.076 1.51-.149 3.042-.618 1.532-.47 2.282-1.781 2.408-2.08.188-.449.308-.95.284-1.526-.057-1.342-.703-2.1-1.37-2.624a5.022 5.022 0 0 0-1.687-.874zm-7.259 8.148s-.943.27-1.625 1.045c-.681.775-.671 1.63-.671 1.63s.576-.88 1.496-1.12c.09-.899.8-1.555.8-1.555zm8.55-4.693H9.312s-.128 2.543 5.674 2.543c5.381 0 5.663-2.187 5.675-2.505v-.038zm-6.706-2.18c.157-.054.214-.177.185-.301-.028-.124-.101-.187-.31-.155-.21.03-.464.225-.424.401.04.176.393.108.55.054z"/>
</svg>
