<svg xmlns="http://www.w3.org/2000/svg" xmlns:xlink="http://www.w3.org/1999/xlink" width="320" height="48" viewBox="0 0 320 48">
    <defs>
        <path id="${prefix}-3810a" d="M0 0h320v48H0z"/>
    <mask id="${prefix}-3810b" fill="#fff">
            <use xlink:href="#${prefix}-3810a"/>
        </mask></defs>
    <g fill="none" fill-rule="evenodd">
        
        <use fill="#FFA07B" transform="matrix(1 0 0 -1 0 48)" xlink:href="#${prefix}-3810a"/>
        <text fill="#FFF" font-family="Rubik-Bold, Rubik" font-size="14" font-weight="bold" mask="url(#${prefix}-3810b)">
            <tspan x="102.726" y="20">&#x421;&#x43A;&#x438;&#x434;&#x43A;&#x438; &#x434;&#x43E; -90%</tspan> <tspan x="79.402" y="37">&#x414;&#x43B;&#x44F; &#x432;&#x441;&#x435;&#x445; &#x432;&#x43B;&#x44E;&#x431;&#x43B;&#x451;&#x43D;&#x43D;&#x44B;&#x445;</tspan>
        </text>
        <g mask="url(#${prefix}-3810b)" opacity=".4">
            <path fill="#FFF" d="M43.812 28.37c-4.587.892-7.357 5.006-6.408 9.884 1.14 5.87 7.316 10.662 16.25 14.074.346.118.808.229 1.106.171.297-.058.684-.333.946-.57 7.02-6.513 10.95-13.269 9.81-19.14-.949-4.877-5.058-7.654-9.644-6.762-2.62.509-4.532 2.153-5.433 4.245-1.65-1.61-4.009-2.41-6.627-1.901zM72.493-3.64c-3.735-1.663-7.785-.104-9.553 3.868-2.128 4.78-.107 11.314 4.584 18.243.189.259.464.57.706.678.243.107.658.104.965.066 8.3-1.145 14.508-4.015 16.636-8.795 1.77-3.972.217-8.025-3.517-9.688-2.133-.949-4.33-.73-6.025.317-.374-1.982-1.664-3.74-3.796-4.689zM21.992 10.279c-3.023 1.346-4.28 4.626-2.848 7.842 1.723 3.87 6.75 6.193 13.458 7.124.258.027.595.03.79-.058.197-.087.42-.34.563-.545 3.807-5.613 5.444-10.902 3.72-14.772-1.431-3.216-4.71-4.477-7.733-3.131-1.726.769-2.784 2.208-3.073 3.795-1.395-.848-3.15-1.024-4.877-.255z"/>
        </g>
        <g mask="url(#${prefix}-3810b)" opacity=".4">
            <path fill="#FFF" d="M273.188 28.37c4.587.892 7.357 5.006 6.408 9.884-1.14 5.87-7.316 10.662-16.25 14.074-.346.118-.808.229-1.106.171-.297-.058-.684-.333-.946-.57-7.02-6.513-10.95-13.269-9.81-19.14.949-4.877 5.058-7.654 9.644-6.762 2.62.509 4.532 2.153 5.433 4.245 1.65-1.61 4.009-2.41 6.627-1.901zM244.507-3.64c3.735-1.663 7.785-.104 9.553 3.868 2.128 4.78.107 11.314-4.584 18.243-.189.259-.464.57-.706.678-.243.107-.658.104-.965.066-8.3-1.145-14.508-4.015-16.636-8.795-1.77-3.972-.217-8.025 3.517-9.688 2.133-.949 4.33-.73 6.025.317.374-1.982 1.664-3.74 3.796-4.689zm50.501 13.919c3.023 1.346 4.28 4.626 2.848 7.842-1.723 3.87-6.75 6.193-13.458 7.124-.258.027-.595.03-.79-.058-.197-.087-.42-.34-.563-.545-3.807-5.613-5.444-10.902-3.72-14.772 1.431-3.216 4.71-4.477 7.733-3.131 1.726.769 2.784 2.208 3.073 3.795 1.395-.848 3.15-1.024 4.877-.255z"/>
        </g>
    </g>
</svg>
