<svg xmlns="http://www.w3.org/2000/svg" width="24" height="24" viewBox="0 0 24 24">
    <path fill="#CFD8DC" fill-rule="evenodd" d="M4.564 17.84c.177 0 .372-.051.574-.181V8.542c0-.493.085-.65.499-.892l7.71-4.558C13.339 2.407 12.907 2 12.342 2c-.27 0-.557.087-.861.26L4.53 6.367c-.904.538-1.031.737-1.031 1.829v8.154c0 .884.422 1.49 1.064 1.49zm3.42 2.028c.178 0 .38-.052.575-.182v-9.124c0-.503.076-.633.498-.884l7.71-4.558c0-.685-.43-1.092-1.013-1.092-.262 0-.55.078-.853.251L7.942 8.395c-.904.529-1.03.745-1.03 1.829v8.154c0 .892.447 1.49 1.072 1.49zM11.616 22c.32 0 .718-.13 1.157-.39l6.578-3.882c.862-.511 1.149-.97 1.149-2.036l-.008-7.79c0-1.145-.431-1.751-1.149-1.751-.32 0-.7.13-1.132.381l-6.587 3.9c-.887.528-1.148.987-1.148 2.036v7.79c0 1.118.413 1.742 1.14 1.742zm.574-2.054c-.05-.008-.06-.034-.06-.095l.068-7.314c0-.303.085-.459.338-.615l6.148-3.709a.096.096 0 01.085-.017c.034 0 .059.035.059.095l-.042 7.34c0 .26-.085.46-.338.606l-6.174 3.692c-.033.017-.059.026-.084.017z"/>
</svg>
