<svg xmlns="http://www.w3.org/2000/svg" width="24" height="24" viewBox="0 0 24 24">
    <path fill-rule="evenodd" d="M18.12 22c1.815 0 2.88-1.018 2.88-3.033V8.84c0-2.016-1.075-3.034-3.184-3.034h-1.623C16.143 3.751 14.287 2 11.995 2 9.703 2 7.847 3.751 7.797 5.806H6.184C4.064 5.806 3 6.814 3 8.84v10.127C3 20.992 4.065 22 6.184 22H18.12zM14.56 5.806H9.43c.05-1.282 1.135-2.319 2.565-2.319s2.515 1.037 2.566 2.32zm3.53 14.619H6.205c-1.015 0-1.572-.519-1.572-1.537v-9.97c0-1.018.557-1.536 1.572-1.536h11.58c1.004 0 1.582.518 1.582 1.536v9.97c0 1.018-.578 1.537-1.277 1.537z"/>
</svg>
