<svg xmlns="http://www.w3.org/2000/svg" width="70" height="70" viewBox="0 0 70 70">
    <path fill="#CFD8DC" fill-rule="evenodd" d="M52.85 64.167c5.294 0 8.4-2.968 8.4-8.847V25.782c0-5.879-3.135-8.847-9.287-8.847H47.23c-.148-5.993-5.56-11.102-12.245-11.102-6.684 0-12.097 5.109-12.245 11.102h-4.703c-6.181 0-9.287 2.94-9.287 8.847V55.32c0 5.907 3.106 8.847 9.287 8.847H52.85zM42.468 16.935H27.502c.148-3.739 3.313-6.764 7.483-6.764s7.335 3.025 7.483 6.764zm10.293 42.637H18.096c-2.957 0-4.584-1.513-4.584-4.48V26.01c0-2.968 1.627-4.48 4.584-4.48h33.778c2.928 0 4.614 1.512 4.614 4.48v29.081c0 2.968-1.686 4.48-3.727 4.48z"/>
</svg>
