<svg xmlns="http://www.w3.org/2000/svg" width="20" height="20" viewBox="0 0 20 20">
    <path fill="#7B8E98" fill-rule="evenodd" d="M10 18.333c4.559 0 8.333-3.774 8.333-8.333 0-4.55-3.782-8.333-8.341-8.333-4.55 0-8.325 3.782-8.325 8.333 0 4.559 3.782 8.333 8.333 8.333zm0-1.389A6.91 6.91 0 013.064 10a6.91 6.91 0 016.928-6.944A6.935 6.935 0 0116.944 10 6.913 6.913 0 0110 16.944zm-.074-9.852c.597 0 1.063-.474 1.063-1.063 0-.596-.466-1.07-1.063-1.07-.588 0-1.062.474-1.062 1.07a1.06 1.06 0 001.062 1.063zm1.97 7.401c.334 0 .596-.236.596-.571a.58.58 0 00-.597-.572h-1.013V9.19c0-.441-.22-.735-.637-.735H8.71a.58.58 0 00-.596.572c0 .335.261.572.596.572h.874v3.75H8.57a.58.58 0 00-.596.572c0 .335.261.571.596.571h3.325z"/>
</svg>
