<svg xmlns="http://www.w3.org/2000/svg" width="24" height="24" viewBox="0 0 24 24">
    <path fill="#263238" fill-rule="evenodd" d="M5.1 8.251c.61 0 1.098-.5 1.098-1.126C6.198 6.507 5.711 6 5.1 6 4.495 6 4 6.507 4 7.125c0 .627.495 1.126 1.1 1.126zm14.15-.365c.417 0 .75-.332.75-.76a.743.743 0 00-.75-.761H8.736a.747.747 0 00-.743.76c0 .429.325.761.743.761H19.25zM5.1 13.126c.61 0 1.098-.5 1.098-1.126 0-.618-.487-1.125-1.099-1.125C4.495 10.875 4 11.382 4 12c0 .626.495 1.125 1.1 1.125zm14.15-.365c.417 0 .75-.333.75-.761s-.325-.76-.75-.76H8.736c-.41 0-.743.332-.743.76s.325.76.743.76H19.25zM5.1 18c.61 0 1.098-.5 1.098-1.125 0-.619-.487-1.126-1.099-1.126-.604 0-1.099.507-1.099 1.126C4 17.5 4.495 18 5.1 18zm14.15-.365c.417 0 .75-.332.75-.76a.743.743 0 00-.75-.761H8.736a.747.747 0 00-.743.76c0 .429.325.761.743.761H19.25z"/>
</svg>
