<svg xmlns="http://www.w3.org/2000/svg" width="20" height="20" viewBox="0 0 20 20">
    <path fill="#7B8E98" fill-rule="evenodd" d="M16.19 16.667c1.358 0 2.143-.755 2.143-2.25V6.409c0-1.487-.792-2.241-2.37-2.241H3.81c-1.358 0-2.143.747-2.143 2.241v8.01c0 1.501.792 2.249 2.37 2.249H16.19zm-6.175-5.434c-.302 0-.596-.138-.913-.45l-5.7-5.405c.167-.065.363-.101.59-.101h12.016c.234 0 .438.036.604.116l-5.684 5.39c-.324.312-.619.45-.913.45zM2.83 14.54c-.007-.036-.007-.08-.007-.123V6.336l4.34 4.092-4.333 4.113zm14.35-.022l-4.31-4.091 4.31-4.07v8.161zm-1.17 1.038H3.991c-.212 0-.4-.03-.551-.095l4.513-4.287.491.464c.528.5 1.034.711 1.57.711.528 0 1.042-.21 1.57-.71l.49-.465 4.507 4.28c-.166.073-.355.102-.574.102z"/>
</svg>
