<svg xmlns="http://www.w3.org/2000/svg" width="20" height="20" viewBox="0 0 20 20">
    <path fill="#FFF" fill-rule="evenodd" d="M12.962 3.75c.808 0 1.465.647 1.465 1.442v8.654c0 .795-.657 1.442-1.465 1.442a1.46 1.46 0 0 1-1.448-1.227l-.446-.438c-.775-.763-1.917-1.22-3.054-1.22h-.488v2.405c0 .795-.657 1.442-1.465 1.442a1.455 1.455 0 0 1-1.465-1.442V12.32a1.46 1.46 0 0 1-.892-.879H3.62c-1.077 0-1.953-.862-1.953-1.923 0-1.06.876-1.923 1.953-1.923h.084c.201-.56.744-.961 1.38-.961h2.93c1.137 0 2.28-.456 3.054-1.22l.446-.438a1.46 1.46 0 0 1 1.448-1.227zM6.55 12.404h-.976v2.404c0 .265.219.48.488.48.27 0 .488-.215.488-.48v-2.404zm6.413-7.692a.485.485 0 0 0-.488.48v8.654c0 .265.219.48.488.48l.088-.007c.227-.04.4-.237.4-.473V5.192a.485.485 0 0 0-.488-.48zm2.585 6.871c.19-.188.5-.188.69 0l.977.962c.19.187.19.492 0 .68a.494.494 0 0 1-.69 0l-.977-.962a.475.475 0 0 1 0-.68zm-4.05-5.248A5.38 5.38 0 0 1 8.5 7.575v3.89a5.38 5.38 0 0 1 2.998 1.238zM7.526 7.596H5.085a.485.485 0 0 0-.489.48v2.886c0 .265.22.48.489.48h2.441V7.596zm10.32 1.923c.269 0 .487.215.487.481s-.218.48-.488.48H16.38a.485.485 0 0 1-.488-.48c0-.266.219-.48.488-.48zM3.62 8.558a.97.97 0 0 0-.977.961c0 .53.438.962.977.962zm12.903-1.783c.19-.187.5-.187.69 0a.475.475 0 0 1 0 .68l-.976.962a.494.494 0 0 1-.69 0 .476.476 0 0 1 0-.68z"/>
</svg>
