<svg xmlns="http://www.w3.org/2000/svg" width="70" height="70" viewBox="0 0 70 70">
    <path fill="#CFD8DC" fill-rule="evenodd" d="M35 5.833c16.108 0 29.167 13.059 29.167 29.167 0 16.108-13.059 29.167-29.167 29.167C18.892 64.167 5.833 51.108 5.833 35 5.833 18.892 18.892 5.833 35 5.833zm0 4.959C21.63 10.792 10.792 21.63 10.792 35S21.63 59.208 35 59.208 59.208 48.37 59.208 35 48.37 10.792 35 10.792zm.084 34.181c3.77 0 7.331 1.206 10.006 3.347.955.764 1.129 2.182.389 3.168-.74.986-2.115 1.165-3.07.4-1.891-1.514-4.506-2.399-7.325-2.399-2.89 0-5.563.93-7.46 2.51-.941.783-2.319.631-3.077-.34-.758-.97-.61-2.392.33-3.175 2.694-2.242 6.34-3.51 10.207-3.51zm-6.022-15.806c1.16 0 2.102.971 2.102 2.17 0 5.89-4.643 8.68-11.562 8.68-1.16 0-2.102-.972-2.102-2.17 0-1.2.941-2.17 2.102-2.17 4.68 0 7.13-1.345 7.342-3.958l.015-.382c0-1.199.942-2.17 2.103-2.17zm11.876 0c1.161 0 2.103.971 2.103 2.17 0 2.864 2.454 4.34 7.357 4.34 1.16 0 2.102.97 2.102 2.17 0 1.198-.941 2.17-2.102 2.17-6.919 0-11.562-2.79-11.562-8.68 0-1.199.941-2.17 2.102-2.17z"/>
</svg>
