<svg xmlns="http://www.w3.org/2000/svg" width="24" height="24" viewBox="0 0 24 24">
    <path fill-rule="evenodd" d="M14.378 1l2.848 3.615.949-.254 1.037 3.705c1.332.182 2.372 1.262 2.457 2.59l.005.176v2.045h.226c.567 0 1.034.429 1.094.98l.006.12v3.085c0 .567-.429 1.034-.98 1.093l-.12.007h-.226v2.045c0 1.483-1.19 2.7-2.685 2.788l-.174.005H3.86c-1.519 0-2.765-1.162-2.855-2.623L1 20.207v-9.375c0-1.483 1.19-2.7 2.686-2.788l.174-.005h.548l.939-.251L14.378 1zm4.437 8.455H3.86c-.732 0-1.335.547-1.404 1.244l-.006.133v9.375c0 .715.56 1.304 1.274 1.37l.136.007h14.955c.731 0 1.335-.547 1.403-1.245l.006-.132v-2.045H15.72c-.567 0-1.034-.43-1.094-.98l-.006-.12v-3.085c0-.567.429-1.034.98-1.094l.12-.006h4.504v-2.045c0-.715-.56-1.304-1.274-1.371l-.135-.006zm2.735 4.838h-5.48v2.453h5.48v-2.453zM17.159 6.1L9.905 8.039H17.7L17.16 6.1zm-3.046-3.115L9.035 6.803l6.68-1.785-1.602-2.032z"/>
</svg>
