<svg xmlns="http://www.w3.org/2000/svg" width="24" height="24" viewBox="0 0 24 24">
    <path fill="#87D4AB" fill-rule="evenodd" d="M17.867 22c1.79 0 2.965-.48 3.998-1.646.082-.082.164-.174.235-.256.614-.685.9-1.36.9-2.004 0-.736-.43-1.421-1.34-2.055l-2.975-2.065c-.92-.634-1.994-.706-2.853.143l-.787.787c-.235.235-.44.245-.665.102-.552-.347-1.666-1.319-2.423-2.075-.797-.788-1.564-1.667-1.973-2.311-.133-.235-.123-.43.112-.665l.777-.787c.86-.859.788-1.943.154-2.853L8.96 3.34C8.327 2.43 7.642 2.01 6.906 2c-.644-.01-1.32.287-2.004.9l-.256.225C3.481 4.168 3 5.344 3 7.113c0 2.924 1.8 6.482 5.102 9.785C11.384 20.18 14.953 22 17.867 22zm.01-1.575c-2.607.052-5.95-1.953-8.599-4.59C6.61 13.175 4.513 9.72 4.564 7.112c.02-1.125.42-2.096 1.217-2.792.072-.061.123-.112.194-.163.307-.266.634-.41.93-.41.297 0 .563.113.758.42l1.983 2.975c.215.317.235.675-.082.992l-.9.9c-.705.705-.654 1.564-.143 2.25.583.787 1.596 1.932 2.383 2.709.777.787 2.014 1.892 2.812 2.485.685.51 1.544.562 2.25-.144l.899-.9c.317-.316.665-.296.992-.091l2.975 1.983c.307.205.42.46.42.767 0 .297-.144.624-.41.93l-.163.195c-.695.797-1.667 1.186-2.802 1.206z"/>
</svg>
