<svg xmlns="http://www.w3.org/2000/svg" width="26" height="26" viewBox="0 0 26 26">
    <path fill="#CFD8DC" fill-rule="evenodd" d="M8.349 22.75c.557 0 .968-.273 1.643-.868l3.355-2.946h5.889c2.944 0 4.597-1.698 4.597-4.595V7.845c0-2.898-1.653-4.595-4.597-4.595H6.764c-2.934 0-4.597 1.697-4.597 4.595v6.496c0 2.907 1.711 4.595 4.529 4.595h.4v2.39c0 .868.46 1.424 1.253 1.424zm.489-2.185v-2.78c0-.576-.254-.8-.802-.8H6.833c-1.84 0-2.72-.927-2.72-2.702v-6.38c0-1.775.88-2.702 2.72-2.702h12.344c1.83 0 2.71.927 2.71 2.702v6.38c0 1.775-.88 2.702-2.71 2.702H13.24c-.597 0-.89.097-1.301.526l-3.101 3.054zm.87-6.634c1.018 0 2.896-1.21 2.896-3.511 0-1.327-.851-2.361-2.142-2.361-1.164 0-2.035.82-2.035 1.97 0 1.103.695 1.942 1.77 1.942.421 0 .822-.088 1.077-.39h.117c-.313.74-1.017 1.258-1.731 1.433-.333.078-.44.244-.44.469 0 .263.205.448.488.448zm5.146 0c1.017 0 2.895-1.21 2.895-3.511 0-1.327-.851-2.361-2.142-2.361-1.164 0-2.035.82-2.035 1.97 0 1.103.695 1.942 1.77 1.942.431 0 .832-.088 1.087-.39h.107c-.313.74-1.017 1.258-1.731 1.433-.323.078-.44.244-.44.469 0 .263.205.448.489.448z"/>
</svg>
