<svg xmlns="http://www.w3.org/2000/svg" width="16" height="16" viewBox="0 0 16 16">
    <path fill="#F44336" fill-rule="evenodd" d="M12.11 14.224c.247-.185.301-.49.15-.92l-1.254-3.718 3.206-2.285c.372-.263.522-.543.426-.836-.096-.292-.378-.436-.84-.43l-3.933.03L8.671 2.33c-.145-.436-.36-.662-.673-.662-.306 0-.522.226-.666.662L6.137 6.065l-3.933-.03c-.462-.006-.744.138-.84.43-.102.293.054.573.426.836l3.206 2.285-1.255 3.719c-.15.43-.096.734.15.919.247.19.559.125.931-.143l3.176-2.322 3.182 2.322c.372.268.679.334.93.143z"/>
</svg>
