<svg xmlns="http://www.w3.org/2000/svg" width="20" height="20" viewBox="0 0 20 20">
    <g fill="none" fill-rule="evenodd">
        <path fill="#263238" d="M6.296 16a.718.718 0 01-.523-.221L2.22 12.158a.751.751 0 01-.22-.506c0-.417.29-.695.68-.695.208 0 .366.082.492.209l1.562 1.605.926 1.106-.063-1.46V4.714c0-.423.283-.714.699-.714s.699.29.699.714v7.703l-.063 1.46.926-1.106 1.562-1.605a.653.653 0 01.485-.209c.397 0 .687.278.687.695 0 .171-.082.367-.22.506l-3.553 3.62a.74.74 0 01-.523.222z"/>
        <path fill="#01A54E" d="M13.704 16c-.41 0-.699-.29-.699-.714V7.583l.063-1.46-.926 1.106-1.562 1.605a.653.653 0 01-.485.209c-.397 0-.68-.278-.68-.695 0-.171.075-.367.214-.506l3.559-3.62a.718.718 0 011.04 0l3.552 3.62c.138.139.22.335.22.506 0 .417-.283.695-.68.695a.667.667 0 01-.492-.209L15.273 7.23l-.933-1.106.07 1.46v7.703c0 .423-.29.714-.706.714z"/>
    </g>
</svg>
