<svg xmlns="http://www.w3.org/2000/svg" width="20" height="20" viewBox="0 0 20 20">
    <path fill="#7B8E98" fill-rule="evenodd" d="M15.358 1.667c.962 0 1.912.693 2.24 1.62l.043.135.686 3.27.006.094v1.552c0 .823-.445 1.564-1.134 1.954l-.141.072v5.99c0 1.002-.74 1.833-1.695 1.962l-.132.013-.128.004H4.898a1.968 1.968 0 01-1.952-1.849l-.004-.13v-5.99l-.009-.004a2.241 2.241 0 01-1.246-1.718l-.015-.151-.005-.153V6.786c0-.042.004-.084.01-.122l.686-3.256c.264-.936 1.182-1.672 2.142-1.737l.137-.004h10.716zm-.766 8.281l-.068.066a2.189 2.189 0 01-2.925.001l-.069-.067-.068.066a2.185 2.185 0 01-1.299.555l-.163.006a2.188 2.188 0 01-1.462-.56l-.069-.067-.068.066a2.19 2.19 0 01-1.3.555l-.163.006a2.192 2.192 0 01-1.462-.56l-.069-.067-.079.076c-.252.223-.55.385-.875.474l-.152.035v5.821c0 .307.226.561.516.602l.08.005h10.206a.6.6 0 00.59-.524l.005-.083v-5.82l-.151-.036a2.199 2.199 0 01-.875-.474l-.08-.076zM7.789 7.472H6.087v.866c0 .445.334.813.759.86l.092.005c.438 0 .8-.338.847-.771l.005-.094v-.866zm3.061 0h-1.7v.866c0 .445.333.813.759.86l.092.005c.437 0 .8-.338.846-.771l.005-.094v-.866zm3.062 0H12.21v.866c0 .445.334.813.759.86l.092.005c.438 0 .8-.338.847-.771l.005-.094v-.866zm-9.184 0H3.025v.866c0 .445.334.813.76.86l.092.005c.437 0 .8-.338.846-.771l.005-.094v-.866zm12.246 0h-1.702v.866c0 .446.333.813.759.86l.092.005c.437 0 .8-.338.846-.771l.005-.094v-.866zm-1.616-4.433H4.642c-.366 0-.791.304-.937.643l-.031.085-.45 2.333h13.552l-.446-2.316c-.101-.359-.506-.69-.88-.739l-.092-.006z"/>
</svg>
