<svg xmlns="http://www.w3.org/2000/svg" width="16" height="16" viewBox="0 0 16 16">
    <path fill="#FFF" fill-rule="evenodd" d="M8 14.667c3.647 0 6.667-3.02 6.667-6.667 0-3.64-3.026-6.667-6.674-6.667-3.64 0-6.66 3.026-6.66 6.667 0 3.647 3.026 6.667 6.667 6.667zm0-1.111A5.529 5.529 0 012.451 8a5.527 5.527 0 015.542-5.556A5.548 5.548 0 0113.556 8 5.53 5.53 0 018 13.556zm-.007-4.85a.45.45 0 00.458-.458V3.843a.45.45 0 00-.458-.45.444.444 0 00-.45.45v3.954H4.581a.445.445 0 00-.458.451c0 .262.196.458.458.458h3.411z"/>
</svg>
