<svg xmlns="http://www.w3.org/2000/svg" width="20" height="20" viewBox="0 0 20 20">
    <path fill="#7B8E98" fill-rule="evenodd" d="M18.227 9.596l-2.543-3.91c-.12-.185-.325-.296-.545-.296h-3.163v-1.4c0-.363-.292-.657-.651-.657H2.318c-.36 0-.651.294-.651.657v10.708c0 .363.291.656.65.656h2.066c.269.764.992 1.313 1.841 1.313s1.572-.549 1.841-1.313h4.597c.27.764.993 1.313 1.841 1.313.85 0 1.573-.549 1.842-1.313h1.337c.36 0 .651-.293.651-.656V9.955c0-.128-.037-.253-.106-.36zM6.224 15.354c-.359 0-.651-.294-.651-.656 0-.362.292-.656.651-.656.359 0 .651.294.651.656 0 .362-.292.656-.651.656zm4.45-1.312H8.064c-.269-.764-.992-1.312-1.841-1.312s-1.572.548-1.841 1.312H2.969V4.646h7.704v9.396zm3.83 1.312c-.36 0-.652-.294-.652-.656 0-.362.292-.656.651-.656.36 0 .652.294.652.656 0 .362-.293.656-.652.656zm2.527-1.312h-.686c-.27-.764-.993-1.312-1.842-1.312-.848 0-1.572.548-1.84 1.312h-.687v-7.34h2.811l2.244 3.45v3.89z"/>
</svg>
