<svg xmlns="http://www.w3.org/2000/svg" width="174" height="32" viewBox="0 0 174 32">
    <path d="M131.356 25.8c.216 0 .324.07.324.21a.954.954 0 0 1-.015.168 5.982 5.982 0 0 0-.084.448 51.61 51.61 0 0 0-.106.889 9.772 9.772 0 0 0-.02.738v.164c0 .616.009 1.101.027 1.456.02.354.08.937.183 1.75.02.13 0 .225-.056.286-.056.06-.216.091-.478.091h-.775c-.244 0-.392-.177-.443-.532-.049-.334-.075-1.242-.077-2.724v-.285c0-.522.004-.905.013-1.147.01-.243.047-.593.113-1.05h-2.027c-.132.802-.197 1.52-.197 2.155 0 .588.02 1.134.063 1.638.042.503.092 1.017.148 1.54 0 .148-.026.253-.077.314-.052.06-.205.091-.458.091h-.774c-.235 0-.38-.173-.437-.518-.056-.345-.084-1.353-.084-3.023 0-1.185.035-1.92.105-2.204.07-.285.21-.427.416-.427h4.265l.254-.014.197-.014zm38.89.007c.108.027.162.09.162.19 0 .082-.02.251-.06.51-.041.257-.108.649-.14.957-.031.308-.047.72-.047 1.236h.108c.576-1.06 1.124-1.83 1.646-2.31.423-.388.827-.583 1.214-.583.144 0 .275.02.391.061.117.04.176.088.176.143 0 .09-.036.185-.108.285-.18.253-.27.602-.27 1.046l-.013.271-.324.014c-.126-.272-.324-.408-.594-.408-.216 0-.465.12-.749.36-.283.24-.523.528-.721.863l-.27.38c.872.244 1.574.62 2.104 1.127.657.625.985 1.25.985 1.874 0 .11-.108.163-.323.163h-.162l-.459-.04c-.18 0-.326.009-.439.027a1.93 1.93 0 0 1-.209.027.182.182 0 0 1-.175-.109c-.036-.072-.072-.221-.108-.448a3.369 3.369 0 0 0-.58-1.46 2.186 2.186 0 0 0-1.12-.835c0 .57.011 1.039.034 1.406.022.366.08.76.125 1.077.018.135.01.221-.027.258-.071.072-.26.108-.566.108h-.607c-.225 0-.36-.165-.405-.495-.042-.311-.086-1.244-.091-2.711v-.281c0-1.177.06-2.01.118-2.282.058-.272.187-.407.384-.407l.338.027.647-.041c.072-.01.117-.01.135 0zM146.96 25.8c.09 0 .176.045.258.136a.47.47 0 0 1 .122.325.776.776 0 0 1-.068.326 3.836 3.836 0 0 0-.15.258c-.172.253-.316.5-.434.74a6.88 6.88 0 0 0-.326.793l-.666-.122c.063-.181.109-.321.136-.42.027-.1.04-.204.04-.313 0-.48-.194-.81-.584-.99-.235-.109-.548-.163-.937-.163h-.245l-.013 1.22-.014.883c0 .687.007 1.331.02 1.933.014.601.034 1.01.061 1.228.019.126-.002.219-.06.278-.06.059-.211.088-.456.088h-.76c-.182 0-.29-.084-.327-.251-.036-.167-.054-.572-.054-1.214l.013-.8v-.557l.028-1.479.04-1.33h-.23c-.381 0-.685.05-.911.15-.408.181-.611.516-.611 1.004 0 .081.022.206.067.373.046.167.077.287.096.36l-.666.122a6.066 6.066 0 0 0-.3-.794 6.538 6.538 0 0 0-.448-.74 2.565 2.565 0 0 1-.149-.243.748.748 0 0 1-.082-.34.47.47 0 0 1 .123-.325c.081-.09.167-.136.258-.136.063 0 .158.01.285.027.127.018.281.036.462.055.19.036.444.058.761.067.317.01.62.014.91.014h2.99c.371 0 .729-.027 1.073-.081.181-.019.333-.037.455-.055a2.13 2.13 0 0 1 .293-.027zm-85.044 0c.375 0 .749.077 1.123.23.187.076.42.199.701.368.179.136.327.204.446.204a.46.46 0 0 0 .268-.089l.306.37a2.923 2.923 0 0 1-.58.318 1.464 1.464 0 0 1-.542.114.974.974 0 0 1-.542-.172 2.445 2.445 0 0 1-.49-.433 9.425 9.425 0 0 0-.294-.324.552.552 0 0 0-.357-.153c-.374 0-.634.301-.778.904-.102.416-.153.942-.153 1.578a3.94 3.94 0 0 1 .752-.432c.366-.17.65-.255.855-.255.153 0 .31.03.471.09.162.059.32.135.472.228.153.094.264.14.332.14a.562.562 0 0 0 .23-.05c.076-.035.153-.081.229-.14l.242.318a3.881 3.881 0 0 1-.338.362 4.23 4.23 0 0 1-.344.274c-.14.102-.25.17-.332.204a.702.702 0 0 1-.274.05.755.755 0 0 1-.287-.037 2.413 2.413 0 0 1-.274-.166 4.554 4.554 0 0 0-.382-.23 1.103 1.103 0 0 0-.523-.152c-.179 0-.353.047-.523.14a2.306 2.306 0 0 0-.294.217c0 .61.147 1.124.44 1.54.294.416.708.624 1.244.624a2.1 2.1 0 0 0 .714-.134c.247-.089.531-.252.855-.49l.216.255a2.874 2.874 0 0 1-2.168.93c-.73-.001-1.36-.175-1.887-.523-.748-.5-1.122-1.282-1.122-2.342v-.408c0-.662.2-1.281.599-1.858.493-.713 1.156-1.07 1.99-1.07zm17.548 0c.09 0 .177.045.258.136a.47.47 0 0 1 .123.325.776.776 0 0 1-.068.326 3.836 3.836 0 0 0-.15.258c-.172.253-.317.5-.435.74a6.88 6.88 0 0 0-.326.793l-.666-.122c.064-.181.11-.321.136-.42.028-.1.041-.204.041-.313 0-.48-.195-.81-.584-.99-.236-.109-.548-.163-.938-.163h-.244l-.014 1.22-.013.883c0 .687.006 1.331.02 1.933.014.601.034 1.01.061 1.228.018.126-.002.219-.061.278-.059.059-.21.088-.455.088h-.761c-.181 0-.29-.084-.326-.251-.036-.167-.055-.572-.055-1.214l.014-.8v-.557l.027-1.479.04-1.33h-.23c-.38 0-.684.05-.91.15-.408.181-.612.516-.612 1.004 0 .081.023.206.068.373.045.167.077.287.095.36l-.666.122a6.066 6.066 0 0 0-.299-.794 6.538 6.538 0 0 0-.448-.74 2.565 2.565 0 0 1-.15-.243.748.748 0 0 1-.08-.34.47.47 0 0 1 .121-.325c.082-.09.168-.136.259-.136.063 0 .158.01.285.027.127.018.28.036.462.055.19.036.444.058.76.067.318.01.621.014.911.014h2.99c.37 0 .729-.027 1.073-.081.181-.019.333-.037.455-.055.122-.018.22-.027.292-.027zm9.68 0c.064.01.108.033.13.07a.232.232 0 0 1 .036.125c0 .074-.024.225-.07.453a7.424 7.424 0 0 0-.11.864 12.25 12.25 0 0 0-.042.968v.293c.508 0 .996.062 1.463.188.467.125.877.327 1.228.606.398.316.684.692.86 1.128.12.307.18.627.18.962 0 .25-.087.413-.263.487-.093.037-.254.056-.486.056h-.222l-.222-.014-.305-.014h-3.413c-.157 0-.272-.042-.346-.125-.074-.084-.111-.214-.111-.39V29.7c0-1.765.027-2.854.083-3.267.055-.413.208-.62.458-.62l.402.014h.402c.093-.019.158-.028.195-.028h.152zm26.153 0c.091 0 .146.023.165.069 0 .1.002.18.007.24.004.059.378 1.5.378 1.5.293 1.17.559 2.11.797 2.824.156.438.372 1.028.528 1.457 0 .073-.087.11-.262.11h-1.333c-.065 0-.108-.055-.131-.164a170.88 170.88 0 0 0-.562-1.965c-.192.64-.43 1.128-.715 1.466-.366.439-.816.658-1.347.658-.495 0-.867-.201-1.114-.603-.193-.31-.289-.676-.289-1.096 0-.43.211-.942.633-1.535.146-.21.48-.613 1.003-1.207.046-.054.234-.26.564-.616.147-.156.22-.279.22-.37a.95.95 0 0 0-.02-.185 2.106 2.106 0 0 0-.07-.247.846.846 0 0 1-.047-.267c0-.046.087-.069.26-.069h1.335zm-66.622 0c.162 0 .513.133 1.053.398.54.265.81.49.81.678 0 .065-.11.216-.33.453a2.904 2.904 0 0 0-.389.501c-.057.098-.097.147-.122.147-.024 0-.11-.094-.255-.281a2.59 2.59 0 0 0-.438-.453 2.294 2.294 0 0 0-.914-.403 1.87 1.87 0 0 0-.152.55 3.924 3.924 0 0 0-.042.465c0 .538.172 1.086.517 1.644.345.559.74.924 1.187 1.095a3.11 3.11 0 0 0 .317-.38c.065-.089.125-.179.182-.268l.159-.245.377.306a5.117 5.117 0 0 1-.938 1.406c-.373.391-.677.587-.913.587-.365 0-.787-.373-1.266-1.119s-.718-1.437-.718-2.073c0-.66.235-1.337.706-2.03.446-.652.836-.978 1.169-.978zm108.604 0c.374 0 .748.077 1.123.23.187.076.42.199.701.368.179.136.327.204.446.204a.46.46 0 0 0 .268-.089l.306.37a2.923 2.923 0 0 1-.58.318 1.464 1.464 0 0 1-.542.114.974.974 0 0 1-.542-.172 2.445 2.445 0 0 1-.491-.433 9.425 9.425 0 0 0-.293-.324.552.552 0 0 0-.357-.153c-.375 0-.634.301-.778.904-.102.416-.153.942-.153 1.578.187-.144.437-.288.752-.432.366-.17.65-.255.854-.255.153 0 .31.03.472.09.162.059.32.135.472.228.153.094.264.14.332.14a.562.562 0 0 0 .23-.05c.076-.035.152-.081.229-.14l.242.318a3.881 3.881 0 0 1-.338.362 4.23 4.23 0 0 1-.344.274c-.14.102-.25.17-.332.204a.702.702 0 0 1-.274.05.755.755 0 0 1-.287-.037 2.413 2.413 0 0 1-.274-.166 4.555 4.555 0 0 0-.383-.23 1.103 1.103 0 0 0-.523-.152c-.178 0-.352.047-.522.14a2.306 2.306 0 0 0-.294.217c0 .61.147 1.124.44 1.54.294.416.708.624 1.244.624a2.1 2.1 0 0 0 .714-.134c.246-.089.531-.252.854-.49l.217.255a2.874 2.874 0 0 1-2.168.93c-.731-.001-1.36-.175-1.887-.523-.749-.5-1.123-1.282-1.123-2.342v-.408c0-.662.2-1.281.6-1.858.493-.713 1.156-1.07 1.99-1.07zm-68.203 3.347a4.475 4.475 0 0 0-.028.476v.224c0 .317.007.667.021 1.05l.021.615h1.51l.224-.014.014-.42c0-.429-.088-.788-.266-1.077-.288-.485-.787-.77-1.496-.854zm24.973-2.046c-.37.409-.677.834-.921 1.274-.244.441-.366.807-.366 1.097 0 .218.061.42.183.607.122.186.314.28.576.28.334 0 .609-.128.825-.382.181-.21.271-.432.271-.668 0-.145-.027-.309-.081-.49l-.135-.45-.163-.573-.19-.695zm-11.415 1.064c.104.017.156.078.156.185l-.012.556.012.556c0 .099-.052.157-.156.173h-.108l-.48-.025-.385.013c-.144 0-.22-.019-.229-.056a2.983 2.983 0 0 1-.03-.278 4.951 4.951 0 0 1-.018-.395c0-.338.016-.542.048-.612.032-.07.109-.105.229-.105l.384.013.481-.025h.108zM61.72 0c.32 0 .555.106.705.317.15.21.225.477.225.8 0 .2-.075.482-.225.844-.15.362-.26.638-.33.83a10.215 10.215 0 0 0-.496 2.187c-.06.502-.11.834-.15.995-.12.422-.36.634-.72.634-.3 0-.51-.121-.63-.362-.04-.08-.13-.373-.27-.875-.441-1.59-1.042-2.665-1.802-3.228-.5-.362-1.221-.543-2.162-.543h-2.281v17.647h2.371v1.207H46.8v-1.207h2.372V1.6H46.8V.392h10.717c.44 0 .896-.015 1.366-.045.47-.03.921-.07 1.351-.12.43-.051.761-.101.991-.152.23-.05.395-.075.495-.075zm14.803 0c1.542 0 2.928.266 4.158.798 1.718.749 2.899 1.95 3.543 3.606h1.318v1.182H78.66V4.404h.879c-.176-.847-.498-1.537-.966-2.069-.684-.769-1.591-1.153-2.724-1.153-1.366 0-2.4.67-3.104 2.01-.585 1.104-.878 2.483-.878 4.138 0 .473.03.936.088 1.39.722-.651 1.464-1.104 2.225-1.36a7.571 7.571 0 0 1 2.43-.385 5.87 5.87 0 0 1 3.09.857c.947.572 1.606 1.36 1.976 2.365h1.142v1.212h-6.91v-1.212h1.025c-.156-.532-.41-.946-.762-1.241-.351-.296-.683-.444-.995-.444-.566 0-1.142.114-1.728.34-.586.227-1.054.547-1.405.96.175 1.104.288 1.764.336 1.981.05.217.171.63.366 1.241.274.907.474 1.68.6 2.32.128.641.191 1.385.191 2.232 0 .355-.015.611-.044.769-.03.157-.102.394-.22.709.254.138.596.207 1.025.207 1.62 0 2.89-.483 3.807-1.448.664-.69 1.122-1.616 1.376-2.779h-1.405v-1.152h7.291v1.152l-1.025.03a10.757 10.757 0 0 1-3.426 3.783c-1.542 1.064-3.114 1.596-4.714 1.596a22.26 22.26 0 0 1-2.402-.133 12.421 12.421 0 0 1-2.137-.399 6.33 6.33 0 0 0 .058-.71c0-.689-.165-1.359-.497-2.01-.235-.452-.635-1.034-1.2-1.743-1.29-1.576-2.114-2.763-2.475-3.561-.361-.799-.542-1.76-.542-2.882 0-3.192 1.074-5.577 3.221-7.153C71.925.621 74.024 0 76.523 0zm26.431 0v1.21h-1.74c.34 2.482.83 5.165 1.47 8.05a115.43 115.43 0 0 0 2.01 7.687c.08.262.176.6.286 1.014.11.413.293 1.06.353 1.282h2.078v1.21h-8.402v-1.21h1.867c-.68-2.078-1.394-4.747-1.974-7.35-.3-1.352-.64-3.067-1.02-5.145l-.48-2.39c-.3.343-.571.71-.811 1.104-.24.394-.51.883-.81 1.468C95 8.342 94.44 9.628 94.1 10.788c-.34 1.16-.51 2.184-.51 3.072 0 1.271.06 2.068.18 2.39.12.324.3.485.54.485.28 0 .47.1.57.303.18.383.27 1.27.27 2.663 0 .302-.11.499-.33.59-.22.09-.45.136-.69.136-.16 0-.34-.015-.54-.045s-.36-.056-.48-.076c-.12-.02-.266-.03-.436-.03h-.375c-.36 0-.64.015-.84.045-.2.03-.37.045-.51.045a1.15 1.15 0 0 1-.706-.211c-.19-.142-.305-.414-.345-.817v-1.03c0-1.069.17-2.123.51-3.162.34-1.039 1.06-2.638 2.16-4.796l1.892-3.662c.68-1.271 1.07-2.018 1.17-2.24.56-1.19.84-2.027.84-2.511 0-.323-.074-.525-.224-.605-.15-.081-.395-.122-.736-.122h-1.95V0h9.394zm17.75 0v1.23h-2.02v11.011l6.427-7.904V1.23h-1.99V0h8.907v1.23h-2.418v17.993h2.418v1.23h-8.907v-1.23h1.99V6.305l-6.427 7.874v5.044h2.02v1.23h-8.938v-1.23h2.418V1.23h-2.418V0h8.938zm23.8 0c.201 0 .432.133.693.4.16.19.33.371.511.543.441.438.767.747.978.928.21.181.787.662 1.729 1.443 1.584 1.314 2.637 2.523 3.158 3.628.441.914.662 1.97.662 3.17 0 1.276-.26 2.428-.782 3.457-.441.857-1.158 1.766-2.15 2.728-.993.962-2 1.909-3.024 2.842-.922.876-1.564 1.314-1.925 1.314-.22 0-.5-.114-.842-.343-.34-.228-1.032-.761-2.075-1.6-1.725-1.428-2.847-2.466-3.369-3.113-1.123-1.428-1.684-3.047-1.684-4.856 0-1.924.682-3.77 2.045-5.542.822-1.066 2.005-2.19 3.55-3.37a19.8 19.8 0 0 0 .706-.53 6.39 6.39 0 0 0 .496-.456c.201-.2.401-.357.602-.472.2-.114.441-.171.722-.171zm20.507 0c2.546 0 4.495.77 5.845 2.312.887 1.014 1.466 2.282 1.736 3.803h1.128v1.142h-7.204V6.115h1.157c0-1.833-.318-3.16-.955-3.979-.501-.644-1.167-.966-1.996-.966-.907 0-1.64.39-2.2 1.17-.732 1.035-1.099 2.634-1.099 4.8 0 1.092.077 2.136.231 3.13.155.995.42 2.273.796 3.834.376 1.56.564 2.857.564 3.891 0 .234-.024.449-.072.644l-.13.527-.116.41c.116.097.328.146.637.146 1.041 0 2.03-.703 2.966-2.107a8.214 8.214 0 0 0 1.403-4.653c0-.331-.01-.575-.029-.731h-1.157v-1.17h7.204v1.17h-1.128c0 2.282-1.032 4.252-3.096 5.91-1.91 1.542-3.984 2.312-6.221 2.312-.54 0-.93-.024-1.172-.073a4.718 4.718 0 0 1-.854-.278v-.38a3.5 3.5 0 0 0-.42-1.668c-.279-.527-.95-1.483-2.01-2.868-.945-1.21-1.582-2.34-1.91-3.394-.212-.683-.318-1.502-.318-2.458v-.731c0-2.595.839-4.702 2.517-6.32C160.69.76 162.658 0 165.011 0zm-22.2 3.394c-1.05.137-1.903.615-2.561 1.436-.659.82-.988 1.7-.988 2.637 0 .86.38 1.827 1.142 2.902.7.977 1.79 2.159 3.27 3.546.926.86 1.544 1.49 1.852 1.89.309.4.494.835.556 1.304.864-.332 1.65-.85 2.36-1.553.71-.704 1.137-1.465 1.28-2.286a2.4 2.4 0 0 0 .063-.469 2.4 2.4 0 0 0-.062-.469c-.144-.82-.772-1.856-1.883-3.106a338.056 338.056 0 0 1-2.005-2.14c-1.132-1.172-1.728-1.797-1.79-1.875-.658-.704-1.07-1.31-1.234-1.817zM9.94 0l12.219.011a1.911 1.911 0 0 1 1.915 1.915l-.019 6.073h6.098c1.06 0 1.92.86 1.92 1.914v12.172A1.916 1.916 0 0 1 30.154 24h-6.098v6.084A1.92 1.92 0 0 1 22.137 32h-12.2a1.916 1.916 0 0 1-1.919-1.916V24H1.921A1.92 1.92 0 0 1 0 22.085V9.913c0-1.057.858-1.914 1.92-1.914h6.098V1.915A1.92 1.92 0 0 1 9.94 0zm.255.896c-.702 0-1.279.575-1.279 1.284v6.715h-6.73c-.711 0-1.288.576-1.288 1.286v11.637c0 .71.577 1.286 1.288 1.286h6.73v6.715c0 .71.572 1.285 1.277 1.285H21.88c.7 0 1.276-.576 1.276-1.285v-6.715h6.73c.712 0 1.289-.576 1.289-1.286V10.18c0-.712-.57-1.286-1.271-1.286h-6.75l.02-6.704A1.277 1.277 0 0 0 21.901.907zm.255.897l11.193.01c.352 0 .634.287.633.64l-.022 7.348h7.394c.344 0 .63.283.63.633v11.15a.63.63 0 0 1-.63.633H22.26v7.36a.636.636 0 0 1-.634.64H10.449a.637.637 0 0 1-.634-.64v-7.36h-7.39a.633.633 0 0 1-.629-.632V10.424a.63.63 0 0 1 .63-.633h7.389V2.433c0-.356.284-.64.635-.64zm8.966 7.436c-.718-.205-1.662-.4-3.675-.154-2.28.278-2.583.84-3.277 1.26-.693.419-.738.65-.8.968-.134.134-.331.16-.331.16s-.125.046-.25.046a.838.838 0 0 1-.249-.047s.075.093.166.123c.092.03.27.022.27.022s-.028.054-.072.071c-.043.018-.25.06-.25.06s.14.05.25.033a.282.282 0 0 0 .17-.099l.358-.196s1.108.562 2.09.196c.981-.365.326-.491 1.52-1.051 1.193-.56 2.597-.516 3.698-.163 1.102.354 2.144 1.149 2.144 2.25 0 1.103-.483 1.981-2.403 2.53-.91.26-2.43.417-3.645.738a9.08 9.08 0 0 0-.947.305c-.591.228-1.496.84-1.965 1.499-.298.419-.542.936-.542 1.51 0 .79.254 1.892 1.174 2.63.92.737 2.08 1.12 3.557 1.12 3.17 0 4.77-1.965 4.77-3.57 0-1.604-1.316-2.519-1.853-2.647-.76.181-1.87.344-1.87.344s.463.17.586.222c.241.103.51.233.717.376.484.335.819.788.855 1.634.036.847-.703 1.447-.703 1.447s-.962.867-2.335.867-3.33-.568-3.33-2.353c0-1.785 3.109-2.332 3.49-2.409.38-.076 1.512-.149 3.048-.618 1.536-.47 2.287-1.781 2.414-2.08a3.49 3.49 0 0 0 .285-1.526c-.057-1.342-.705-2.1-1.374-2.624a5.038 5.038 0 0 0-1.69-.874zm-7.275 8.148s-.946.27-1.629 1.045c-.683.775-.673 1.63-.673 1.63s.577-.88 1.5-1.12c.091-.899.802-1.555.802-1.555zm8.569-4.693H9.334s-.128 2.543 5.688 2.543 5.688-2.543 5.688-2.543zm-6.72-2.18c.156-.054.213-.177.185-.301-.029-.124-.102-.187-.312-.155-.21.03-.464.225-.424.401.04.176.394.108.55.054z" fill="#01A54E" fill-rule="evenodd"/>
</svg>
