<svg xmlns="http://www.w3.org/2000/svg" width="52" height="24" viewBox="0 0 52 24">
    <g fill="none" fill-rule="evenodd">
        <rect width="51.75" height="24" fill="#FFF" rx="4.5"/>
        <path fill="#1A1F71" d="M26.589 9.52c-.024 1.916 1.666 2.985 2.94 3.62 1.308.653 1.747 1.07 1.742 1.654-.01.892-1.043 1.286-2.01 1.301-1.688.027-2.67-.466-3.45-.84l-.608 2.914c.783.37 2.232.692 3.735.706 3.528 0 5.836-1.784 5.848-4.55.014-3.509-4.74-3.703-4.707-5.272.011-.476.454-.983 1.425-1.113.481-.065 1.808-.115 3.312.595l.59-2.82a8.814 8.814 0 00-3.143-.59c-3.32 0-5.655 1.808-5.674 4.396m14.49-4.153c-.644 0-1.187.385-1.429.976l-5.039 12.324h3.525l.702-1.986h4.307l.407 1.986h3.107l-2.711-13.3H41.08m.493 3.593l1.017 4.994h-2.786l1.769-4.994M22.315 5.368l-2.778 13.3h3.359l2.777-13.3h-3.358m-4.97 0L13.85 14.42l-1.415-7.697c-.166-.859-.82-1.355-1.549-1.355H5.171l-.08.386c1.173.26 2.506.682 3.314 1.132.494.275.635.515.798 1.168l2.678 10.614h3.55l5.442-13.3h-3.527"/>
    </g>
</svg>
