<svg xmlns="http://www.w3.org/2000/svg" width="28" height="28" viewBox="0 0 28 28">
    <g fill="none" fill-rule="evenodd">
        <path fill="#000" fill-rule="nonzero" d="M14 28c7.732 0 14-6.268 14-14S21.732 0 14 0 0 6.268 0 14s6.268 14 14 14z"/>
        <path fill="#FFF" fill-rule="nonzero" d="M14 28c7.732 0 14-6.268 14-14S21.732 0 14 0 0 6.268 0 14s6.268 14 14 14z"/>
        <path fill="#000" fill-rule="nonzero" d="M14 26C7.373 26 2 20.627 2 14S7.373 2 14 2s12 5.373 12 12-5.373 12-12 12z"/>
        <path fill="#01A54E" d="M14 26C7.373 26 2 20.627 2 14S7.373 2 14 2s12 5.373 12 12-5.373 12-12 12z"/>
        <path fill="#FFF" d="M11.332 7l5.347.005c.46 0 .83.374.83.846L17.5 10.5h2.653c.468 0 .847.377.847.831v5.34c0 .458-.375.83-.847.83H17.5v2.653a.841.841 0 01-.83.847h-5.34a.836.836 0 01-.83-.847V17.5H7.847A.842.842 0 017 16.67v-5.34c0-.459.375-.83.847-.83H10.5V7.846c0-.468.377-.847.832-.847zm.112.392a.56.56 0 00-.552.562v2.937H7.954a.557.557 0 00-.562.552v5.113c0 .3.252.552.562.552h2.938v2.938c0 .31.247.562.552.562h5.112a.56.56 0 00.552-.562v-2.938h2.938c.31 0 .562-.247.562-.552v-5.113a.56.56 0 00-.563-.552h-2.938l.009-2.932a.556.556 0 00-.55-.562zm.117.392l4.886.005c.143 0 .277.123.277.274l-.01 3.22h3.227c.158 0 .275.124.275.277v4.879a.283.283 0 01-.275.277h-3.225v3.225a.272.272 0 01-.277.275h-4.878a.283.283 0 01-.277-.275v-3.225H8.059a.272.272 0 01-.275-.277V11.56c0-.142.123-.277.275-.277h3.225V8.06c0-.159.124-.275.277-.275zm3.914 3.254c-.313-.09-.726-.175-1.604-.068-.996.122-1.128.368-1.43.551-.303.184-.323.285-.35.424-.058.059-.144.07-.144.07s-.055.02-.109.02-.109-.02-.109-.02.032.04.073.053c.04.014.117.01.117.01s-.012.024-.031.031c-.019.008-.109.026-.109.026s.061.022.109.015a.119.119 0 00.074-.043l.156-.086s.484.246.913.086c.428-.16.142-.215.663-.46.52-.246 1.133-.226 1.614-.071.481.154.936.502.936.984s-.21.866-1.049 1.106c-.397.114-1.06.183-1.59.324-.163.043-.3.09-.414.133-.258.1-.653.367-.858.656-.13.183-.236.41-.236.66 0 .346.11.828.512 1.15.402.323.908.491 1.553.491 1.384 0 2.082-.86 2.082-1.562 0-.701-.575-1.102-.81-1.158-.33.08-.816.15-.816.15s.203.075.257.098c.105.045.222.102.313.164.21.147.357.345.372.715.016.37-.307.633-.307.633s-.42.38-1.018.38c-.6 0-1.454-.249-1.454-1.03 0-.78 1.357-1.02 1.523-1.054.167-.033.66-.065 1.33-.27a1.8 1.8 0 001.054-.91c.083-.197.135-.416.125-.668-.025-.587-.308-.918-.6-1.148a2.177 2.177 0 00-.738-.382zM12.3 14.603s-.413.118-.711.457c-.299.339-.294.713-.294.713s.252-.385.654-.49c.04-.393.35-.68.35-.68zm3.74-2.054h-4.966s-.056 1.113 2.483 1.113c2.375 0 2.48-.974 2.483-1.1v-.013zm-2.934-.954c.069-.023.094-.077.081-.131-.012-.054-.044-.082-.136-.068-.091.013-.203.099-.185.176.017.076.172.047.24.023z"/>
    </g>
</svg>
