<svg xmlns="http://www.w3.org/2000/svg" width="63" height="62" viewBox="0 0 63 62">
    <g fill="none" fill-rule="evenodd">
        <path fill="#000" fill-rule="nonzero" d="M31.51 51.523a.5.5 0 01-.5.477c-.29 0-.51-.21-.52-.477-.145-3.168-1.756-5.217-4.832-6.147C15.53 42.968 8 33.863 8 23 8 10.297 18.297 0 31 0s23 10.297 23 23c0 10.863-7.53 19.968-17.658 22.376-3.076.93-4.687 2.98-4.83 6.147h-.002z"/>
        <path fill="#01A54E" d="M31.51 51.523a.5.5 0 01-.5.477c-.29 0-.51-.21-.52-.477-.145-3.168-1.756-5.217-4.832-6.147C15.53 42.968 8 33.863 8 23 8 10.297 18.297 0 31 0s23 10.297 23 23c0 10.863-7.53 19.968-17.658 22.376-3.076.93-4.687 2.98-4.83 6.147h-.002z"/>
        <path fill="#FFF" d="M26.438 11l9.143.008a1.432 1.432 0 011.433 1.436L37 17h4.563A1.44 1.44 0 0143 18.448v9.105c0 .8-.642 1.448-1.437 1.448H37v4.563a1.44 1.44 0 01-1.447 1.437h-9.106A1.443 1.443 0 0125 33.563V29h-4.563A1.44 1.44 0 0119 27.552v-9.105c0-.8.642-1.448 1.437-1.448H25v-4.563c0-.794.646-1.437 1.438-1.436zm.2.672a.963.963 0 00-.966.963v5.036h-5.036a.965.965 0 00-.964.965v8.727c0 .534.432.965.964.965h5.036v5.036c0 .532.432.964.964.964h8.728a.964.964 0 00.964-.964v-5.036h5.036a.965.965 0 00.964-.965v-8.727a.964.964 0 00-.964-.965h-5.038l.015-5.028a.962.962 0 00-.963-.963zm.181.672l8.376.008a.47.47 0 01.474.47l-.017 5.521h5.533c.257 0 .471.213.471.475v8.363c0 .263-.21.475-.47.475h-5.53v5.53c0 .256-.212.47-.475.47H26.82a.472.472 0 01-.475-.47v-5.53h-5.53a.475.475 0 01-.47-.475v-8.363c0-.263.21-.475.47-.475h5.53v-5.528c0-.258.213-.47.475-.47zm6.71 5.578c-.538-.154-1.244-.3-2.75-.116-1.707.209-1.933.63-2.452.945-.52.314-.553.488-.6.726-.1.1-.247.12-.247.12s-.093.035-.186.034c-.094 0-.187-.034-.187-.034s.056.069.124.092c.069.023.202.016.202.016s-.021.04-.054.054c-.032.013-.186.044-.186.044s.104.038.186.026c.082-.013.128-.075.128-.075l.267-.147s.83.422 1.564.147c.735-.274.244-.368 1.137-.788.893-.42 1.943-.387 2.768-.122.824.265 1.604.861 1.604 1.688 0 .826-.361 1.485-1.798 1.896-.68.195-1.818.313-2.727.554a6.98 6.98 0 00-.71.229c-.441.17-1.119.63-1.47 1.124-.223.314-.405.702-.405 1.132 0 .592.19 1.42.879 1.972.688.553 1.556.841 2.661.841 2.373 0 3.57-1.474 3.57-2.677s-.985-1.89-1.387-1.986c-.569.136-1.4.258-1.4.258s.347.127.44.167c.18.077.381.175.536.282.362.251.612.59.64 1.226.026.634-.527 1.084-.527 1.084s-.72.651-1.747.651c-1.027 0-2.492-.426-2.492-1.765 0-1.338 2.326-1.749 2.612-1.807.285-.057 1.131-.111 2.28-.464 1.15-.352 1.712-1.335 1.806-1.56a2.61 2.61 0 00.214-1.144c-.043-1.006-.528-1.574-1.028-1.968a3.773 3.773 0 00-1.265-.655zm-5.444 6.111s-.708.202-1.219.784c-.511.581-.503 1.222-.503 1.222s.431-.66 1.122-.84c.068-.674.6-1.166.6-1.166zm6.412-3.52h-8.513s-.096 1.907 4.256 1.907c4.069 0 4.25-1.666 4.257-1.884v-.023zm-5.029-1.635c.117-.04.16-.133.139-.226-.022-.093-.077-.14-.234-.116-.157.023-.347.17-.317.301.03.132.295.081.412.04zM31 62c-2.21 0-4-1.79-4-4s1.79-4 4-4 4 1.79 4 4-1.79 4-4 4z"/>
        <path fill="#00CA5F" d="M31 60a2.002 2.002 0 10.001-3.999A2 2 0 0031 60z"/>
    </g>
</svg>
